<svg width="26" height="24" viewBox="0 0 26 24" fill="none" xmlns="http://www.w3.org/2000/svg">
<path d="M23.4163 18.33C23.4163 18.69 23.331 19.06 23.1498 19.42C22.9686 19.78 22.7342 20.12 22.4251 20.44C21.9028 20.98 21.3273 21.37 20.6771 21.62C20.0376 21.87 19.3448 22 18.5987 22C17.5116 22 16.3498 21.76 15.1241 21.27C13.8984 20.78 12.6727 20.12 11.4577 19.29C10.2193 18.4401 9.0507 17.5041 7.96175 16.49C6.88394 15.472 5.88988 14.3789 4.98808 13.22C4.1141 12.08 3.41065 10.94 2.89905 9.81C2.38745 8.67 2.13165 7.58 2.13165 6.54C2.13165 5.86 2.25955 5.21 2.51535 4.61C2.77115 4 3.17617 3.44 3.74106 2.94C4.42319 2.31 5.16927 2 5.95799 2C6.25642 2 6.55485 2.06 6.82131 2.18C7.09842 2.3 7.34357 2.48 7.53541 2.74L10.0081 6.01C10.2 6.26 10.3385 6.49 10.4345 6.71C10.5304 6.92 10.5837 7.13 10.5837 7.32C10.5837 7.56 10.5091 7.8 10.3599 8.03C10.2213 8.26 10.0188 8.5 9.763 8.74L8.95297 9.53C8.83573 9.64 8.78244 9.77 8.78244 9.93C8.78244 10.01 8.7931 10.08 8.81441 10.16C8.84639 10.24 8.87836 10.3 8.89968 10.36C9.09153 10.69 9.42193 11.12 9.8909 11.64C10.3705 12.16 10.8821 12.69 11.4364 13.22C12.0119 13.75 12.5661 14.24 13.131 14.69C13.6853 15.13 14.1436 15.43 14.5059 15.61C14.5592 15.63 14.6232 15.66 14.6978 15.69C14.7831 15.72 14.8683 15.73 14.9643 15.73C15.1454 15.73 15.284 15.67 15.4012 15.56L16.2113 14.81C16.4777 14.56 16.7335 14.37 16.9787 14.25C17.2238 14.11 17.469 14.04 17.7354 14.04C17.9379 14.04 18.1511 14.08 18.3856 14.17C18.6201 14.26 18.8652 14.39 19.1317 14.56L22.6596 16.91C22.9367 17.09 23.1285 17.3 23.2458 17.55C23.3523 17.8 23.4163 18.05 23.4163 18.33Z" stroke="black" stroke-width="1.5" stroke-miterlimit="10"/>
</svg>
