<svg width="24" height="25" viewBox="0 0 24 25" fill="none" xmlns="http://www.w3.org/2000/svg">
<path d="M12 24.067C11.2298 24.067 10.5042 23.6763 9.9907 22.9953L8.31628 20.7628C8.28279 20.7181 8.14884 20.6623 8.09302 20.6512H7.53488C2.88 20.6512 0 19.3898 0 13.1163V7.53488C0 2.60093 2.60093 0 7.53488 0H16.4651C21.3991 0 24 2.60093 24 7.53488V13.1163C24 18.0502 21.3991 20.6512 16.4651 20.6512H15.907C15.8177 20.6512 15.7395 20.6958 15.6837 20.7628L14.0093 22.9953C13.4958 23.6763 12.7702 24.067 12 24.067ZM7.53488 1.67442C3.5386 1.67442 1.67442 3.5386 1.67442 7.53488V13.1163C1.67442 18.1619 3.40465 18.9767 7.53488 18.9767H8.09302C8.66233 18.9767 9.30977 19.3005 9.65581 19.7581L11.3302 21.9907C11.7209 22.5042 12.2791 22.5042 12.6698 21.9907L14.3442 19.7581C14.7126 19.267 15.293 18.9767 15.907 18.9767H16.4651C20.4614 18.9767 22.3256 17.1126 22.3256 13.1163V7.53488C22.3256 3.5386 20.4614 1.67442 16.4651 1.67442H7.53488Z" fill="#292D32"/>
<path d="M12 12C11.3749 12 10.8837 11.4977 10.8837 10.8837C10.8837 10.2698 11.3861 9.76744 12 9.76744C12.614 9.76744 13.1163 10.2698 13.1163 10.8837C13.1163 11.4977 12.6251 12 12 12Z" fill="#292D32"/>
<path d="M16.465 12C15.8399 12 15.3488 11.4977 15.3488 10.8837C15.3488 10.2698 15.8511 9.76744 16.465 9.76744C17.079 9.76744 17.5813 10.2698 17.5813 10.8837C17.5813 11.4977 17.0902 12 16.465 12Z" fill="#292D32"/>
<path d="M7.53492 12C6.9098 12 6.41864 11.4977 6.41864 10.8837C6.41864 10.2698 6.92097 9.76744 7.53492 9.76744C8.14887 9.76744 8.6512 10.2698 8.6512 10.8837C8.6512 11.4977 8.16004 12 7.53492 12Z" fill="#292D32"/>
</svg>
