<svg xmlns="http://www.w3.org/2000/svg" version="1.1" xmlns:xlink="http://www.w3.org/1999/xlink" width="512" height="512" x="0" y="0" viewBox="0 0 1000 1000" style="enable-background:new 0 0 512 512" xml:space="preserve" class=""><g><path d="M238.57 718.6a75.87 75.87 0 0 1-75.78-75.78V458.51a75.78 75.78 0 0 1 151.56 0v184.31a75.87 75.87 0 0 1-75.78 75.78zm0-303.87a43.83 43.83 0 0 0-43.78 43.78v184.31a43.78 43.78 0 0 0 87.56 0V458.51a43.82 43.82 0 0 0-43.78-43.78z" fill="#ffffff" opacity="1" data-original="#000000" class=""></path><path d="M178.79 660.46h-7.18A74.72 74.72 0 0 1 97 585.83v-71.77a74.72 74.72 0 0 1 74.63-74.63h7.18a16 16 0 0 1 16 16v189a16 16 0 0 1-16.02 16.03zm-16-188.11A42.69 42.69 0 0 0 129 514.06v71.77a42.7 42.7 0 0 0 33.81 41.71zM761.43 718.6a75.87 75.87 0 0 1-75.78-75.78V458.51a75.78 75.78 0 0 1 151.56 0v184.31a75.87 75.87 0 0 1-75.78 75.78zm0-303.87a43.82 43.82 0 0 0-43.78 43.78v184.31a43.78 43.78 0 0 0 87.56 0V458.51a43.83 43.83 0 0 0-43.78-43.78z" fill="#ffffff" opacity="1" data-original="#000000" class=""></path><path d="M828.39 660.46h-7.18a16 16 0 0 1-16-16v-189a16 16 0 0 1 16-16h7.18a74.72 74.72 0 0 1 74.61 74.6v71.77a74.72 74.72 0 0 1-74.61 74.63zm8.82-188.11v155.19A42.7 42.7 0 0 0 871 585.83v-71.77a42.69 42.69 0 0 0-33.79-41.71zM264.41 420.58a16 16 0 0 1-16-16c.24-146.5 113.11-265.69 251.59-265.69s251.34 119.16 251.59 265.66a16 16 0 0 1-16 16 16 16 0 0 1-16-16c-.22-128.83-98.73-233.68-219.59-233.68S280.63 275.72 280.41 404.61a16 16 0 0 1-16 15.97z" fill="#ffffff" opacity="1" data-original="#000000" class=""></path><path d="M787.27 420.58a16 16 0 0 1-16-16c-.11-77.22-28.45-149.77-79.8-204.3C640.27 145.94 572.27 116 500 116s-140.28 29.94-191.48 84.31c-51.34 54.52-79.67 127.07-79.78 204.29a16 16 0 0 1-16 16 16 16 0 0 1-16-16c.12-85.39 31.54-165.71 88.49-226.18C342.54 117.52 418.81 84 500 84s157.46 33.52 214.77 94.37c57 60.47 88.38 140.8 88.5 226.19a16 16 0 0 1-16 16zM500 885a16 16 0 0 1 0-32c61.22 0 119.92-16.16 165.27-45.49C709 779.25 736.84 741 743.73 699.92a16 16 0 0 1 31.56 5.29c-8.39 50.09-41.29 96-92.64 129.17C632.18 867 567.32 885 500 885z" fill="#ffffff" opacity="1" data-original="#000000" class=""></path><path d="M469 916h-41.34a47 47 0 0 1 0-94H469a47 47 0 0 1 0 94zm-41.34-62a15 15 0 0 0 0 30H469a15 15 0 0 0 0-30z" fill="#ffffff" opacity="1" data-original="#000000" class=""></path></g></svg>