<svg width="23" height="19" viewBox="0 0 23 19" fill="none" xmlns="http://www.w3.org/2000/svg">
<path d="M11.3611 14.2015C8.66812 14.2015 6.4882 12.1171 6.2876 9.47564L2.56328 6.59737C2.07369 7.21158 1.62315 7.86094 1.25959 8.57101C1.17837 8.73167 1.13606 8.90916 1.13606 9.08918C1.13606 9.2692 1.17837 9.4467 1.25959 9.60736C3.18495 13.364 6.99661 15.9057 11.3611 15.9057C12.3165 15.9057 13.2381 15.7637 14.1264 15.5343L12.2842 14.1089C11.9799 14.1676 11.6709 14.1986 11.3611 14.2015ZM22.5028 16.2643L18.5779 13.2309C19.7701 12.2261 20.7507 10.9942 21.4625 9.607C21.5438 9.44635 21.5861 9.26885 21.5861 9.08883C21.5861 8.90881 21.5438 8.73131 21.4625 8.57065C19.5372 4.81402 15.7255 2.27232 11.3611 2.27232C9.53316 2.27454 7.73495 2.73471 6.13068 3.61081L1.61392 0.11974C1.55502 0.0739078 1.48766 0.0401307 1.4157 0.0203391C1.34375 0.000547565 1.26859 -0.00487057 1.19454 0.00439436C1.12048 0.0136593 1.04898 0.0374257 0.984118 0.0743354C0.919254 0.111245 0.862298 0.160575 0.816505 0.219505L0.11957 1.11668C0.0271184 1.23561 -0.0143087 1.38639 0.00440035 1.53587C0.0231094 1.68534 0.100422 1.82126 0.219335 1.91374L21.1082 18.0583C21.1671 18.1041 21.2345 18.1379 21.3064 18.1577C21.3784 18.1775 21.4535 18.1829 21.5276 18.1736C21.6016 18.1644 21.6731 18.1406 21.738 18.1037C21.8029 18.0668 21.8598 18.0174 21.9056 17.9585L22.6029 17.0613C22.6953 16.9424 22.7367 16.7915 22.7179 16.6421C22.6991 16.4926 22.6218 16.3567 22.5028 16.2643ZM15.9801 11.2228L14.5848 10.1442C14.7023 9.80457 14.7646 9.44833 14.7694 9.08901C14.7763 8.56293 14.6598 8.04257 14.4291 7.56972C14.1985 7.09686 13.8601 6.68469 13.4413 6.36631C13.0224 6.04794 12.5347 5.83223 12.0174 5.73652C11.5001 5.64081 10.9675 5.66777 10.4625 5.81522C10.6766 6.10532 10.7924 6.45623 10.793 6.81678C10.7877 6.93675 10.7694 7.0558 10.7383 7.17181L8.12491 5.15202C9.03273 4.39338 10.178 3.97737 11.3611 3.97649C12.0326 3.97612 12.6975 4.1081 13.318 4.3649C13.9384 4.62169 14.5022 4.99826 14.977 5.47308C15.4518 5.9479 15.8284 6.51164 16.0852 7.13209C16.342 7.75254 16.474 8.41752 16.4736 9.08901C16.4736 9.85695 16.2858 10.5727 15.9801 11.2231V11.2228Z" fill="#2F2E2E"/>
</svg>
