<svg width="25" height="25" viewBox="0 0 25 25" fill="none" xmlns="http://www.w3.org/2000/svg">
<path d="M14.8 9.395V12.73H17.79C18.02 12.73 18.135 12.96 18.135 13.19L17.675 15.375C17.675 15.49 17.445 15.605 17.33 15.605H14.8V24H11.35V15.72H9.39499C9.16499 15.72 9.04999 15.605 9.04999 15.375V13.19C9.04999 12.96 9.16499 12.845 9.39499 12.845H11.35V9.05C11.35 7.095 12.845 5.6 14.8 5.6H17.905C18.135 5.6 18.25 5.715 18.25 5.945V8.705C18.25 8.935 18.135 9.05 17.905 9.05H15.145C14.915 9.05 14.8 9.165 14.8 9.395Z" stroke="#17191C" stroke-width="2" stroke-miterlimit="10" stroke-linecap="round"/>
<path d="M15.95 24H9.05C3.3 24 1 21.7 1 15.95V9.05C1 3.3 3.3 1 9.05 1H15.95C21.7 1 24 3.3 24 9.05V15.95C24 21.7 21.7 24 15.95 24Z" stroke="#17191C" stroke-width="2" stroke-linecap="round" stroke-linejoin="round"/>
</svg>
