<svg width="24" height="24" viewBox="0 0 24 24" fill="none" xmlns="http://www.w3.org/2000/svg">
<path d="M12 23C18.0751 23 23 18.0751 23 12C23 5.92487 18.0751 1 12 1C5.92487 1 1 5.92487 1 12C1 18.0751 5.92487 23 12 23Z" stroke="black" stroke-width="2" stroke-linecap="round" stroke-linejoin="round"/>
<path d="M7.59994 2.1H8.69994C6.55494 8.524 6.55494 15.476 8.69994 21.9H7.59994" stroke="black" stroke-width="2" stroke-linecap="round" stroke-linejoin="round"/>
<path d="M15.3 2.1C17.445 8.524 17.445 15.476 15.3 21.9" stroke="black" stroke-width="2" stroke-linecap="round" stroke-linejoin="round"/>
<path d="M2.09991 16.4V15.3C8.52391 17.445 15.4759 17.445 21.8999 15.3V16.4" stroke="black" stroke-width="2" stroke-linecap="round" stroke-linejoin="round"/>
<path d="M2.09991 8.70011C8.52391 6.55511 15.4759 6.55511 21.8999 8.70011" stroke="black" stroke-width="2" stroke-linecap="round" stroke-linejoin="round"/>
</svg>
