<svg width="24" height="24" viewBox="0 0 24 24" fill="none" xmlns="http://www.w3.org/2000/svg">
<path d="M23 3.36566V17.5885C23 18.7197 22.142 19.7801 21.086 19.9215L20.723 19.9688C18.325 20.3105 14.629 21.6184 12.517 22.8674C12.231 23.0442 11.758 23.0442 11.461 22.8674L11.417 22.844C9.30497 21.6067 5.62003 20.3105 3.23303 19.9688L2.91399 19.9215C1.85799 19.7801 1 18.7197 1 17.5885V3.35387C1 1.95162 2.06697 0.891109 3.37597 1.00895C5.68597 1.20927 9.18397 2.45836 11.142 3.76634L11.417 3.94304C11.736 4.15516 12.264 4.15516 12.583 3.94304L12.77 3.81345C13.463 3.35389 14.343 2.89432 15.3 2.48189V7.28962L17.5 5.72238L19.7 7.28962V1.13862C19.997 1.07971 20.283 1.04431 20.547 1.02074H20.613C21.922 0.902905 23 1.95163 23 3.36566Z" stroke="#292D32" stroke-width="2" stroke-linecap="round" stroke-linejoin="round"/>
<path d="M12 4.33197V22.0073" stroke="#292D32" stroke-width="2" stroke-linecap="round" stroke-linejoin="round"/>
<path d="M19.7 1.13866V7.28966L17.5 5.72242L15.3 7.28966V2.48193C16.741 1.86919 18.347 1.37434 19.7 1.13866Z" stroke="#292D32" stroke-width="2" stroke-linecap="round" stroke-linejoin="round"/>
</svg>
