<svg width="25" height="25" viewBox="0 0 25 25" fill="none" xmlns="http://www.w3.org/2000/svg">
<path d="M12.5 25C5.60465 25 0 19.3953 0 12.5C0 5.60465 5.60465 0 12.5 0C19.3953 0 25 5.60465 25 12.5C25 19.3953 19.3953 25 12.5 25ZM12.5 1.74419C6.56977 1.74419 1.74419 6.56977 1.74419 12.5C1.74419 18.4302 6.56977 23.2558 12.5 23.2558C18.4302 23.2558 23.2558 18.4302 23.2558 12.5C23.2558 6.56977 18.4302 1.74419 12.5 1.74419Z" fill="black"/>
<path d="M12.5 14.5349C12.0233 14.5349 11.6279 14.1395 11.6279 13.6628V7.84884C11.6279 7.37209 12.0233 6.97675 12.5 6.97675C12.9768 6.97675 13.3721 7.37209 13.3721 7.84884V13.6628C13.3721 14.1395 12.9768 14.5349 12.5 14.5349Z" fill="black"/>
<path d="M12.4999 18.3138C12.3488 18.3138 12.1976 18.2789 12.0581 18.2208C11.9186 18.1627 11.7906 18.0813 11.6744 17.9766C11.5697 17.8603 11.4883 17.7441 11.4302 17.5929C11.372 17.4534 11.3372 17.3022 11.3372 17.151C11.3372 16.9999 11.372 16.8487 11.4302 16.7092C11.4883 16.5696 11.5697 16.4417 11.6744 16.3255C11.7906 16.2208 11.9186 16.1394 12.0581 16.0813C12.3372 15.965 12.6627 15.965 12.9418 16.0813C13.0813 16.1394 13.2093 16.2208 13.3255 16.3255C13.4302 16.4417 13.5116 16.5696 13.5697 16.7092C13.6279 16.8487 13.6627 16.9999 13.6627 17.151C13.6627 17.3022 13.6279 17.4534 13.5697 17.5929C13.5116 17.7441 13.4302 17.8603 13.3255 17.9766C13.2093 18.0813 13.0813 18.1627 12.9418 18.2208C12.8023 18.2789 12.6511 18.3138 12.4999 18.3138Z" fill="black"/>
</svg>
