<svg width="27" height="27" viewBox="0 0 27 27" fill="none" xmlns="http://www.w3.org/2000/svg">
<path d="M17.3725 26.4543H17.2051C11.4866 26.4543 8.73042 24.2004 8.25388 19.1517C8.20236 18.6236 8.58875 18.1471 9.12968 18.0956C9.64486 18.0441 10.1343 18.4433 10.1858 18.9714C10.5593 23.0155 12.4654 24.5224 17.2179 24.5224H17.3854C22.6273 24.5224 24.4819 22.6678 24.4819 17.4258V9.02845C24.4819 3.78654 22.6273 1.93191 17.3854 1.93191H17.2179C12.4397 1.93191 10.5335 3.46456 10.1858 7.58596C10.1214 8.11402 9.67061 8.51328 9.12968 8.46176C8.58875 8.42312 8.20236 7.94659 8.241 7.41853C8.6789 2.29253 11.448 0 17.2051 0H17.3725C23.6963 0 26.4009 2.70467 26.4009 9.02845V17.4258C26.4009 23.7496 23.6963 26.4543 17.3725 26.4543Z" fill="white"/>
<path d="M17.0616 14.1931H2.40486C1.8768 14.1931 1.4389 13.7552 1.4389 13.2272C1.4389 12.6991 1.8768 12.2612 2.40486 12.2612H17.0616C17.5896 12.2612 18.0275 12.6991 18.0275 13.2272C18.0275 13.7552 17.5896 14.1931 17.0616 14.1931Z" fill="white"/>
<path d="M5.27733 18.5078C5.03262 18.5078 4.78791 18.4177 4.59472 18.2245L0.280127 13.9099C-0.0933756 13.5364 -0.0933756 12.9182 0.280127 12.5447L4.59472 8.23008C4.96823 7.85658 5.58644 7.85658 5.95994 8.23008C6.33344 8.60358 6.33344 9.22179 5.95994 9.59529L2.32795 13.2273L5.95994 16.8593C6.33344 17.2328 6.33344 17.851 5.95994 18.2245C5.77963 18.4177 5.52204 18.5078 5.27733 18.5078Z" fill="white"/>
</svg>
