<svg width="36" height="36" viewBox="0 0 36 36" fill="none" xmlns="http://www.w3.org/2000/svg">
<path d="M24.9435 0H10.213C3.81448 0 0 3.81448 0 10.213V24.926C0 31.342 3.81448 35.1565 10.213 35.1565H24.926C31.3244 35.1565 35.1389 31.342 35.1389 24.9435V10.213C35.1565 3.81448 31.342 0 24.9435 0ZM26.3674 26.8068H8.78912C8.06841 26.8068 7.47075 26.2092 7.47075 25.4885C7.47075 24.7677 8.06841 24.1701 8.78912 24.1701H26.3674C27.0881 24.1701 27.6857 24.7677 27.6857 25.4885C27.6857 26.2092 27.0881 26.8068 26.3674 26.8068ZM26.3674 18.8966H8.78912C8.06841 18.8966 7.47075 18.299 7.47075 17.5782C7.47075 16.8575 8.06841 16.2599 8.78912 16.2599H26.3674C27.0881 16.2599 27.6857 16.8575 27.6857 17.5782C27.6857 18.299 27.0881 18.8966 26.3674 18.8966ZM26.3674 10.9864H8.78912C8.06841 10.9864 7.47075 10.3887 7.47075 9.66803C7.47075 8.94733 8.06841 8.34967 8.78912 8.34967H26.3674C27.0881 8.34967 27.6857 8.94733 27.6857 9.66803C27.6857 10.3887 27.0881 10.9864 26.3674 10.9864Z" fill="white"/>
</svg>
