<svg width="27" height="24" viewBox="0 0 27 24" fill="none" xmlns="http://www.w3.org/2000/svg">
<path d="M26 10.375V16.625C26 21 23.5 22.875 19.75 22.875H7.25C3.5 22.875 1 21 1 16.625V7.87503C1 3.50003 3.5 1.62503 7.25 1.62503H16" stroke="black" stroke-width="2" stroke-miterlimit="10" stroke-linecap="round" stroke-linejoin="round"/>
<path d="M7.25 8.50003L11.1625 11.625C12.45 12.65 14.5625 12.65 15.85 11.625L17.325 10.45" stroke="black" stroke-width="2" stroke-miterlimit="10" stroke-linecap="round" stroke-linejoin="round"/>
<path d="M22.875 7.25C24.6009 7.25 26 5.85089 26 4.125C26 2.39911 24.6009 1 22.875 1C21.1491 1 19.75 2.39911 19.75 4.125C19.75 5.85089 21.1491 7.25 22.875 7.25Z" stroke="black" stroke-width="2" stroke-miterlimit="10" stroke-linecap="round" stroke-linejoin="round"/>
</svg>
