<svg width="26" height="34" viewBox="0 0 26 34" fill="none" xmlns="http://www.w3.org/2000/svg">
<path d="M24.8107 20.6187L23.1599 17.8784C22.8132 17.2676 22.4996 16.112 22.4996 15.4352V11.2586C22.4996 7.37916 20.2215 4.028 16.9363 2.45972C16.0779 0.940966 14.4931 0 12.6772 0C10.8778 0 9.26009 0.973983 8.40167 2.50924C5.18257 4.11054 2.95397 7.42868 2.95397 11.2586V15.4352C2.95397 16.112 2.64031 17.2676 2.29364 17.8619L0.626314 20.6187C-0.0340138 21.7248 -0.182587 22.9464 0.230117 24.0689C0.626314 25.175 1.56728 26.0334 2.78889 26.4461C5.99147 27.5356 9.35914 28.0639 12.7267 28.0639C16.0944 28.0639 19.4621 27.5356 22.6647 26.4626C23.8202 26.0829 24.7117 25.208 25.1409 24.0689C25.5701 22.9299 25.4546 21.6752 24.8107 20.6187Z" fill="white"/>
<path d="M17.3652 29.8794C16.6719 31.7943 14.8395 33.1645 12.6934 33.1645C11.3893 33.1645 10.1016 32.6363 9.19366 31.6953C8.6654 31.2 8.2692 30.5397 8.03809 29.8629C8.25269 29.8959 8.4673 29.9124 8.69841 29.9454C9.0781 29.9949 9.47431 30.0445 9.87051 30.0775C10.8115 30.16 11.769 30.2096 12.7264 30.2096C13.6674 30.2096 14.6084 30.16 15.5328 30.0775C15.8795 30.0445 16.2262 30.028 16.5563 29.9784C16.8205 29.9454 17.0846 29.9124 17.3652 29.8794Z" fill="white"/>
</svg>
