<svg xmlns="http://www.w3.org/2000/svg" version="1.1" xmlns:xlink="http://www.w3.org/1999/xlink" width="512" height="512" x="0" y="0" viewBox="0 0 510 510" style="enable-background:new 0 0 512 512" xml:space="preserve" fill-rule="evenodd" class=""><g><path d="M442.993 66.522c3.416 3.416 5.182 7.624 5.182 12.485v406.325c0 9.721-7.947 17.668-17.667 17.668H79.528c-9.778 0-17.703-7.955-17.703-17.668V24.704C61.825 14.934 69.759 7 79.528 7h296.64c4.861 0 9.069 1.766 12.485 5.182zM372.157 23H79.528c-.94 0-1.703.763-1.703 1.704v460.628c0 .926.771 1.668 1.703 1.668h350.98c.917 0 1.667-.75 1.667-1.668V83.018h-47.166c-7.045 0-12.852-5.807-12.852-12.852zm48.704 44.018-32.704-32.704v32.704zM172.355 170.527l-41.741-18.661a8 8 0 0 1 0-14.606l116.155-51.928a7.998 7.998 0 0 1 6.53 0l116.154 51.928a8 8 0 0 1 0 14.606l-41.741 18.661 41.741 18.66a8.002 8.002 0 0 1 0 14.607l-41.741 18.661 41.741 18.66a8 8 0 0 1 0 14.607L253.299 307.65a8.006 8.006 0 0 1-6.53 0l-116.155-51.928a8.001 8.001 0 0 1 0-14.607l41.741-18.66-41.741-18.661a8 8 0 0 1 0-14.607zm135.756 8.763-54.812 24.504a7.998 7.998 0 0 1-6.53 0l-54.812-24.504-38.476 17.201 96.553 43.164 96.552-43.164zm0 51.928-54.812 24.504a7.998 7.998 0 0 1-6.53 0l-54.812-24.504-38.476 17.2 96.553 43.165 96.552-43.165zm-58.077-129.82-96.553 43.165 96.553 43.165 96.552-43.165zM143.812 414.119c-4.415 0-8-3.585-8-8s3.585-8 8-8h222.376c4.415 0 8 3.585 8 8s-3.585 8-8 8zm0-41.898c-4.415 0-8-3.585-8-8s3.585-8 8-8h222.376c4.415 0 8 3.585 8 8s-3.585 8-8 8z" fill="#ffffff" opacity="1" data-original="#000000"></path></g></svg>