<svg xmlns="http://www.w3.org/2000/svg" version="1.1" xmlns:xlink="http://www.w3.org/1999/xlink" width="512" height="512" x="0" y="0" viewBox="0 0 32 32" style="enable-background:new 0 0 512 512" xml:space="preserve" class=""><g><path d="M16 2a14 14 0 1 0 14 14A14 14 0 0 0 16 2zm0 26a12 12 0 1 1 12-12 12 12 0 0 1-12 12zm5-15.7a5 5 0 0 1-4 4.9v3.1a1 1 0 0 1-2 0V17a1.79 1.79 0 0 1 1.5-1.77 3 3 0 0 0 2.5-3 3.08 3.08 0 0 0-3-3 3 3 0 0 0-3 3 1 1 0 0 1-2 0 5 5 0 0 1 5-5 5.07 5.07 0 0 1 5 5.07zm-3.6 11a1.4 1.4 0 1 1-1.4-1.4 1.4 1.4 0 0 1 1.4 1.4z" data-name="Layer 25" fill="#ffffff" opacity="1" data-original="#000000" class=""></path></g></svg>