<svg xmlns="http://www.w3.org/2000/svg" version="1.1" xmlns:xlink="http://www.w3.org/1999/xlink" width="512" height="512" x="0" y="0" viewBox="0 0 512 512" style="enable-background:new 0 0 512 512" xml:space="preserve" class=""><g><path d="M440 80a8 8 0 0 0 8-8V56a40.045 40.045 0 0 0-40-40H120a40.045 40.045 0 0 0-40 40v360h16V56a24.028 24.028 0 0 1 24-24h256.019A39.792 39.792 0 0 0 368 56v400a24 24 0 0 1-48 0v-16a8 8 0 0 0-8-8H24a8 8 0 0 0-8 8v16a40.045 40.045 0 0 0 40 40h288a40.045 40.045 0 0 0 40-40V80zM56 480a24.027 24.027 0 0 1-24-24v-8h272v8a39.792 39.792 0 0 0 8.019 24zM408 32a24.028 24.028 0 0 1 24 24v8h-48v-8a24.028 24.028 0 0 1 24-24z" fill="#ffffff" opacity="1" data-original="#000000" class=""></path><path d="M184 104a20.417 20.417 0 0 0 8.078 16.536 20.966 20.966 0 0 0 23.386 23.386 20.964 20.964 0 0 0 33.072 0 20.965 20.965 0 0 0 23.386-23.386 20.964 20.964 0 0 0 0-33.072 20.965 20.965 0 0 0-23.386-23.386 20.964 20.964 0 0 0-33.072 0 20.965 20.965 0 0 0-23.386 23.386A20.417 20.417 0 0 0 184 104zm19.711-4.644a8 8 0 0 0 5-12.075 4.761 4.761 0 0 1 6.568-6.567 8 8 0 0 0 12.075-5 4.761 4.761 0 0 1 9.288 0 8 8 0 0 0 12.075 5 4.761 4.761 0 0 1 6.568 6.567 8 8 0 0 0 5 12.075 4.761 4.761 0 0 1 0 9.288 8 8 0 0 0-5 12.075 4.761 4.761 0 0 1-6.569 6.567 8 8 0 0 0-12.074 5 4.761 4.761 0 0 1-9.288 0 8 8 0 0 0-12.074-5 4.761 4.761 0 0 1-6.569-6.567 8 8 0 0 0-5-12.075 4.761 4.761 0 0 1 0-9.288zM192 200h80v16h-80zM216 168h80v16h-80zM168 168h32v16h-32zM152 240h192v16H152zM120 240h16v16h-16zM152 272h128v16H152zM296 272h48v16h-48zM152 304h192v16H152zM120 304h16v16h-16zM152 336h48v16h-48zM216 336h128v16H216zM152 368h128v16H152zM120 368h16v16h-16zM152 400h192v16H152zM296 368h48v16h-48zM472 144h-8a32 32 0 0 0-64 0v256a7.949 7.949 0 0 0 .851 3.575h-.006l24 48a8 8 0 0 0 14.31 0l24-48h-.006A7.949 7.949 0 0 0 464 400V160h8a8.009 8.009 0 0 1 8 8v88h16v-88a24.028 24.028 0 0 0-24-24zm-40-16a16.019 16.019 0 0 1 16 16h-32a16.019 16.019 0 0 1 16-16zm16 264h-32V272h32zm0-136h-32v-16h32zm-16 174.111L420.944 408h22.112zM448 224h-32v-64h32z" fill="#ffffff" opacity="1" data-original="#000000" class=""></path></g></svg>