<svg width="26" height="26" viewBox="0 0 26 26" fill="none" xmlns="http://www.w3.org/2000/svg">
<path d="M4.19751 23.1571C4.19751 19.2042 8.09793 16.0071 12.9 16.0071C13.8726 16.0071 14.8148 16.1399 15.6961 16.3851M12.9 12.9429C14.2434 12.9429 15.5319 12.4048 16.4818 11.447C17.4318 10.4892 17.9655 9.19022 17.9655 7.83572C17.9655 6.48122 17.4318 5.1822 16.4818 4.22442C15.5319 3.26665 14.2434 2.72858 12.9 2.72858C11.5566 2.72858 10.2681 3.26665 9.31817 4.22442C8.36821 5.1822 7.83453 6.48122 7.83453 7.83572C7.83453 9.19022 8.36821 10.4892 9.31817 11.447C10.2681 12.4048 11.5566 12.9429 12.9 12.9429Z" stroke="white" stroke-width="1.5" stroke-linecap="round" stroke-linejoin="round"/>
<path d="M20.4881 19.051H17.4691M18.9786 17.5597V20.6138M23.031 19.0714C23.031 19.3983 22.9904 19.7149 22.9094 20.0214C22.8182 20.4299 22.6561 20.8283 22.4434 21.1756C22.0862 21.7808 21.5789 22.2817 20.9714 22.6292C20.3638 22.9767 19.677 23.1586 18.9786 23.1571C17.9811 23.1601 17.0191 22.7845 16.2837 22.1051C15.9798 21.8395 15.7164 21.5229 15.5138 21.1756C15.1281 20.5427 14.9247 19.8142 14.9262 19.0714C14.9255 18.5347 15.0299 18.0031 15.2333 17.5071C15.4367 17.0111 15.7352 16.5604 16.1116 16.1809C16.4881 15.8014 16.935 15.5004 17.427 15.2954C17.919 15.0903 18.4462 14.985 18.9786 14.9857C20.174 14.9857 21.258 15.5066 21.9875 16.3442C22.6358 17.0694 23.031 18.0296 23.031 19.0714Z" stroke="white" stroke-width="1.5" stroke-miterlimit="10" stroke-linecap="round" stroke-linejoin="round"/>
</svg>
