<?xml version="1.0" encoding="UTF-8"?><svg id="Background_Complete" xmlns="http://www.w3.org/2000/svg" xmlns:xlink="http://www.w3.org/1999/xlink" viewBox="0 0 394.8 369.4"><defs><style>.cls-1,.cls-2,.cls-3,.cls-4,.cls-5,.cls-6,.cls-7{fill:none;}.cls-8{fill:url(#linear-gradient);}.cls-9{clip-path:url(#clippath);}.cls-10{fill:#e4b82b;}.cls-11{fill:#fff;}.cls-12{fill:#7da2c5;}.cls-13{fill:#a21241;}.cls-14{fill:#c06354;}.cls-15{fill:#bbddfd;}.cls-16{fill:#e17260;}.cls-17{fill:#2176ff;}.cls-18{fill:#1b0b4d;}.cls-19{fill:#558d53;}.cls-20{fill:#2176ff;}.cls-2{stroke:#7da2c5;}.cls-2,.cls-3,.cls-4,.cls-5{stroke-width:2px;}.cls-2,.cls-3,.cls-4,.cls-5,.cls-6,.cls-7{stroke-miterlimit:10;}.cls-3{stroke:#2176ff;}.cls-4{stroke:#bbddfd;}.cls-5,.cls-7{stroke:#fff;}.cls-21{fill:url(#linear-gradient-3);}.cls-22{fill:url(#linear-gradient-4);}.cls-23{fill:url(#linear-gradient-2);}.cls-24{fill:url(#linear-gradient-5);}.cls-6{stroke:#1b0b4d;}.cls-7{opacity:.8;}.cls-25{fill:url(#linear-gradient-6);opacity:.5;}</style><linearGradient id="linear-gradient" x1="69.3" y1="300.3" x2="101.9" y2="285.4" gradientUnits="userSpaceOnUse"><stop offset="0" stop-color="#1b0b4d" stop-opacity=".9"/><stop offset=".6" stop-color="#2f1c70" stop-opacity="0"/></linearGradient><linearGradient id="linear-gradient-2" x1="224.6" y1="315.8" x2="238.8" y2="284.8" gradientUnits="userSpaceOnUse"><stop offset="0" stop-color="#242158" stop-opacity=".9"/><stop offset=".6" stop-color="#f0ca30" stop-opacity="0"/></linearGradient><linearGradient id="linear-gradient-3" x1="164.5" y1="259.9" x2="181.4" y2="276.2" xlink:href="#linear-gradient-2"/><linearGradient id="linear-gradient-4" x1="278.4" y1="-432" x2="266.7" y2="-418.3" gradientTransform="translate(56.9 688.8) rotate(-13)" gradientUnits="userSpaceOnUse"><stop offset=".3" stop-color="#242158" stop-opacity=".9"/><stop offset=".6" stop-color="#e17260" stop-opacity="0"/></linearGradient><linearGradient id="linear-gradient-5" x1="159.4" y1="293.1" x2="150.7" y2="275.5" gradientTransform="matrix(1, 0, 0, 1, 0, 0)" xlink:href="#linear-gradient-4"/><linearGradient id="linear-gradient-6" x1="287.3" y1="249.6" x2="212.7" y2="168.5" gradientUnits="userSpaceOnUse"><stop offset="0" stop-color="#fff"/><stop offset=".6" stop-color="#fff" stop-opacity=".3"/></linearGradient><clipPath id="clippath"><path class="cls-1" d="M351.1,273.9c.3-1.9,.9-3.7,2.5-4.5,2.2-1.3,5.1-.2,7.6-.7,7.1-1.3,7-11.2,6.9-16.6,0-3.5-.2-6.9-.5-10.4,0-.9-.1-1.9-.6-2.7-.9-1.4-2.8-1.8-4.4-1.4-3.1,.9-4.8,4.2-5.4,7.4-.5,3.2-.3,6.5-1.1,9.6-.2,.6-.4,1.2-.7,1.7-.4,.6-.9,1-1.5,1.3-.9,.4-2,.5-2.9,0-1-.6-.8-1.4-.8-2.4,0-1.1-.2-2.3-.3-3.5-.3-2.6-.6-5.2-.8-7.8-.5-5.1-.9-10.3-1.4-15.4-.2-2.3-.5-4.8-1.7-6.9-5.1-9.1-12.8-1.1-13.5,5.5-1.6,15.1,6.2,29.3,5.6,44.3,0,.6,0,1.3-.3,1.9-1.2,2.4-5,1.9-6.7,.6-2.7-2.1-1.8-6.8-1.8-9.5,0-2.3-.7-4.8-2.9-5.9-2.5-1.2-5.7,.2-7.2,2.5-1.8,2.9-1.6,7.8-1.4,11,.2,2.3,.7,4.6,2.1,6.6,1.4,2,3.6,3.5,6.1,3.6,1.5,0,3.1-.2,4.2,.7,1.4,1.1,.9,3,.9,4.7,.1,3.2,2.9,6,6.1,7.4,3.2,1.4,6.9,1.6,10.4,1.8,3-4.8,3.2-10.4,3.4-15.8,0-1.8-.2-4.6,.1-7Z"/></clipPath></defs><path class="cls-5" d="M66.7,160.2h75c12.7,0,23,10.3,23,23v30.9H66.7c-12.7,0-23-10.3-23-23v-7.8c0-12.7,10.3-23,23-23Z"/><path class="cls-15" d="M267,354.3c27.6-9.7,54.2-26.3,71.7-50.6,21.4-29.6,19.5-63.2,23.9-97.8,1.8-14.1,11.2-22.2,16.8-34.6,11.8-26.3,7.6-65.9-17.2-83.8-15.3-11-30.1-12.2-38.4-31.4-4.6-10.6-7.2-22.2-14.3-31.3-10.3-13.2-27.7-18.4-44.1-20.9-19.2-3-37.9-2.4-57.1-2.9-20.5-.6-41.3,0-61.2,5.4-27,7.4-56.7,26.7-61.4,56.2-2,12.6,.6,26.1-4.2,37.9-7.2,17.8-26.4,23.9-40.8,34.4-15.4,11.3-25.4,29-29.8,47.3-7.5,31.3-2,66,12.6,94.4,15.6,30.4,40.9,56.3,71.5,71.5,24,11.9,57.2,15.4,84.3,17.1,29.6,1.8,59.8-.9,87.6-10.7Z"/><path class="cls-12" d="M337.6,232.2c-.2-44.7-12.5-87.6-48.9-116.4-44.9-35.5-107.6-35.1-153.4-1.9-30,21.7-51,54.3-62.8,89.4-11.8,35.1-14.8,72.6-13.6,109.6l273,.9c1.1-12.5,2.3-25.1,3.4-37.6,1.3-14.4,2.3-29.1,2.3-43.8Z"/><path class="cls-7" d="M81.7,155.2h75c12.7,0,23,10.3,23,23v30.9H81.7c-12.7,0-23-10.3-23-23v-7.8c0-12.7,10.3-23,23-23Z"/><path class="cls-7" d="M143.5,49h104.7c16.8,0,30.5,13.6,30.5,30.5v40.8H143.5c-16.8,0-30.5-13.6-30.5-30.5v-10.4c0-16.8,13.6-30.5,30.5-30.5Z"/><g><path class="cls-17" d="M105.3,305.7c-.3-.3-.8-.6-1.2-.9-1.4-1.1-1.7-3.1-1.9-4.9-1.8-22,1.5-44.2,.4-66.2-.2-5.3-4.5-2.7-8-2-.5,0-7.4,1.4-7.3,.6-.6,6.3-1.4,13-5.6,17.7-2.9,3.3-7,5.2-10.6,7.6-13.6,9.2-21.5,26.9-23.4,42.9,0-.4,0-.7,0-1.1-.3-3.2-.5-6.4-.6-9.6-.3-6.7-.4-13.4-.3-20.1,.1-5,.7-10.5-2.3-14.8-2.6-3.7-5.4-4-9.1-4.3-1-2-.8-5.9-.8-7.7,0-2.9,.5-6.1,2.6-8.3,3.4-3.6,8.7-1.4,13.1-2.5,9.8-2.5,6.3-15,5.7-22.2-.4-4.5-7.4-4.5-7,0,.3,3.6,1,7.4,1,11,0,2.3,0,3.8-2.4,4.6-1,.3-2.4,0-3.4,0-5.1,0-9.5,1.1-12.8,5.2-3.6,4.5-4.1,10.3-3.5,15.8,.4,4.2,.6,10,5.7,10.9,4.7,.8,6.2,1.8,6.3,6.8,0,3.4-.2,6.8-.2,10.2,0,7.7,.2,15.4,.8,23,.3,4.4-.4,12.3,3.3,15.6,1.9,1.6,4.1,1.7,5.9,.8,5.8,.3,19.6-.5,21.1-.5h17.8c3,0,8.2,1,11.1-.4,1.5-.8,4.3-2.2,5.4-3.6,.9-1.1,1.2-2.8,.2-3.8Z"/><path class="cls-20" d="M103,240.1c0-1.8,0-3.6-.1-5.4,0-.3,0-.7-.1-1,0-.4-.2-.7-.3-1.1-1.3-2.5-5.9-.3-7.7,.5-2,1-3.8,2.3-5.6,3.6-1,.8-2.2,1.7-2.7,2.9-.6,1.3-.2,3.3-.1,4.7,0,1,.3,2.1,.9,2.9s1.8,1.3,2.7,.7c.2,1.1,.4,2.2,.9,3.2,.4,.8,1.1,1.3,2,1.5,.6,.2,.5,0,.7,.7,0,0,0,0,0,0,.1,.5,.3,.9,.5,1.3,0,0,0,0,0,0,.2,.3,.3,.6,.6,.8,.1,.1,.3,.2,.5,.3,0,0,0,0,0,0,0,0,0,0,0,0,.3,.2,.7,.3,1.1,.4,1,0,2.1-.2,2.6-1.1,.6-1,.5-2.1,.4-3.2,.8,0,1.5-.4,1.8-1.3,.4-.8,.3-1.9,.3-2.8,0-1.1,0-2.1-.1-3.2,2.1,.2,1.7-3,1.7-4.5Z"/><path class="cls-8" d="M79.9,275.9c3.5,2.1,5.9,6.4,5.4,10.6-.4,4.3-3.9,7.8-7,10.4-3.3,2.8-7,5.3-9.1,9.1,2.2-.3,4.4-.4,6.5-.5,1.9,0,4,.1,5.1,1.6,1.1,1.6,.5,3.8,.8,5.7,.2,.1,.5,0,.7-.1,.1,.5,.1,.5,.6,.5,1.7-.1,3.2-1.4,4-3s1.1-3.3,1.3-5.1c.7-6.2,1.1-12.5,.7-18.8-.1-2-.4-4-1.4-5.7-1.7-2.8-4.4-5-7.7-4.7Z"/><path class="cls-17" d="M71.1,217.8c0-.3-.2-.6-.3-.9,0,.1,.8,.4,1,.5,.4,.2,.7,.4,1.1,.6,.7,.4,1.4,.8,2.1,1.2,.7,.4,1.4,.8,2.1,1.3,.3,.2,.5,.4,.8,.3,.5,0,1-.4,1.5-.6,.6-.2,1.2-.5,1.8-.7,1.2-.5,2.4-1,3.6-1.4,2.4-.9,4.8-1.9,7.1-2.9,.9-.4,3-.9,3.3-1.9,.1-.4,.1-.7,.1-1.1,.1-1.9,.5-5.5,.5-5.5,0,0,1.4,1.2,1.7,1.5,.5,.6,1,1.3,1.5,1.9,1,1.3,1.8,2.6,2.6,4.1,1.7,3,3.1,6.1,4.2,9.3,.9,2.6,1.4,5.2-.3,7.5-1.6,2.2-4.2,3.5-6.5,4.7-4.8,2.5-9.9,5.2-15.3,5.7-1.4,.1-2.8,0-4-.5-1.2-.6-2.1-1.8-2.8-3.1-3.3-6.2-4-13.2-5.9-19.9Z"/><path class="cls-18" d="M97.8,231.6c-1.6-.5-3.2-.6-4.8-1.1,.1-.2,.2-.3,.3-.5,.2-.4,.5-.8,.7-1.3,.2-.3,0-.6-.3-.7-.5-.2-1.4,.3-1.9,.5-.8,.3-1.5,.6-2.2,1-.4,.2-.3,.8,.1,.9,.7,.2,1.3,.4,2,.6-.7,1.7-1.3,3.4-1.8,5.2-.2,.6,.8,.9,1,.3,.5-1.7,1-3.4,1.7-5,1.6,.5,3.3,.6,4.9,1.1,.6,.2,.9-.8,.3-1Z"/><path class="cls-18" d="M84.1,227.4c-.2,0-.5,0-.6,0-.1,0-.3,0-.4,.2,0,.1-.2,.3-.2,.4,0,0,0,.2,0,.2,0,.2,0,.3,0,.4,0,.1,.1,.3,.3,.4,.4,.4,1.1,.2,1.4-.3,.3-.5,0-1.2-.5-1.4Z"/><path class="cls-18" d="M99.1,221.4c-.2,0-.5,0-.6,0-.1,0-.3,0-.4,.2,0,.1-.2,.3-.2,.4,0,0,0,.2,0,.2,0,.2,0,.3,0,.4,0,.1,.1,.3,.3,.4,.4,.4,1.1,.2,1.4-.3,.3-.5,0-1.2-.5-1.4Z"/></g><path class="cls-7" d="M276.6,126.8h46.7c13.5,0,24.4,10.9,24.4,24.4h0c0,13.5-10.9,24.4-24.4,24.4h-71.1v-24.4c0-13.5,10.9-24.4,24.4-24.4Z"/><g><path class="cls-16" d="M125,286.3c-1.9,6.5-3.5,14.1,.3,19.7,4.6,6.7,15.3,6.7,22,1.9,6.7-4.7,10.3-12.6,13.4-20.2,5.2-12.8,9.8-25.9,11.6-39.6,1.1-8,.1-17.9-7.1-21.4-11.2-5.4-20.7,3.2-24.3,12.7-5.9,15.4-11.3,31-15.9,46.9Z"/><path class="cls-10" d="M158.9,203.8c-2.9,3.1-5.4,6.4-7.7,9.9-3.1,4.9-5.3,10.1-7.7,15.4-.9,1.8-8.1,17.8-6.5,18.9,9.1,6.5,18.1,13.7,28.5,17.7,.4,.1-1.6,7.8-1.8,8.5-.7,2.8-1.4,5.7-1.9,8.5-1.1,5.7-2,11.5-3,17.2-.6,3.2-1.1,6.4-1.6,9.6-.2,1.4,45.2,4.5,49.3,4.5,12,.2,30.9,3.6,38.2-8.7,1.7-2.9,2.6-6.2,3.4-9.5,4.5-19.3,6.4-39.2,6-59-.1-4.7-.4-9.3-1.5-13.8-1.6-6.6-5.1-12.5-8.7-18.1-3.3-5.2-8.5-8-14-10.7-16.5-7.9-36.5-10.5-53.2-3.1-6.7,3-12.6,7.4-17.7,12.7Z"/><path class="cls-16" d="M234.4,250.6c-.5,1-.9,2.1-1.4,3.1-1.7,4-6.1,11-6.1,15.4-2,6.4-3,13.3-1.8,19.9,.5,2.6,1.3,5.2,2.2,7.8,1.1,3.2,2.3,6.4,4.3,9.2,1.8,2.4,6.2,6.3,9.6,5,3.5-1.4,6.2-7.8,7.5-11,8-18.8,11.2-39.5,13.1-59.8,.1-1.4,.3-2.9,0-4.3-.4-2.1-1.8-3.8-3.1-5.5-1.8-2.2-3.8-4.5-6.6-5-2.6-.5-5.4,.9-7.2,2.9-1.8,2-2.9,4.5-4,7-2.2,5.1-4.4,10.1-6.6,15.2Z"/><path class="cls-10" d="M248.9,248.5c-1.5-.4-23.1-5.7-23.1-3,.2-11.7,.8-23.4,1.9-35.1,.4-3.7,.8-7.5,2.2-10.9,1.4-3.5,4-6.6,7.4-7.9,2.6-1,5.4-.9,8.1-.3,8.5,1.8,15.6,8.8,17.7,17.2,.9,3.6,.9,7.4,.9,11.1-.1,11-.9,22-1.6,33-4.6-.1-9.2-2.8-13.6-4.1Z"/><path class="cls-14" d="M259.9,189.1c.3,1,.5,2,.6,3.1,.5,7-4.2,12.9-8.8,17.6-1.8,1.9-4.4,3.1-6,5.1-1.9,2.2-1.8,5.8-5,6.8-1.4,.4-3-.1-4-1.2-1.2-1.3-1.2-2.8-.6-4.4,.7-1.9,1.3-4.3,2.5-5.9,.9-1.3,2.7-2.2,4.1-3,2.7-1.6,4.9-4.7,5.3-7.8,.8-5.9,0-12.6,2-18.2,.4-1,.8-1.9,1.6-2.6s1.9-1.1,2.9-.7c1.4,.5,2,2.2,2.5,3.6,.9,2.6,2.2,5.1,3,7.8Z"/><path class="cls-14" d="M252.2,263.4c.7,12.6,.5,25.5-2.9,37.8-1,3.7-2.7,8.9-6.3,10.9-4,2.3-10.3,.4-14-1.7-2.5-1.4-4.8-3.1-6.4-5.5-2.4-3.7-2.6-8.5-2.3-12.9,.8-12,3.7-23.1,6.1-34.8,2.5-12.7,5.5-25.3,8.9-37.9,1.4-5.3,3.3-9.3,7.8-12.7,3.2-2.4,8.5-5.6,8.8,.7,.9,18.7-.7,37.4,.3,56.1Z"/><path class="cls-16" d="M201.7,199.4c-.4,.7-.7,1.4-.9,2.1-.2,1-.1,2,0,2.9,.9,7.3,2.4,14.5,10.3,16.8,5.2,1.5,11.6,1,16.4-1.7,1.5-.9,3-1.8,4.2-3.1,1.2-1.3,2.1-2.9,2.1-4.7,5.3,1.2,10.7-4.2,13.4-8,6.3-8.8,8.4-19.9,7.4-30.5-.2-2.6-.6-5.4-2.2-7.5-1.1-1.5-2.7-2.5-4.2-3.5-7.2-4.6-14.9-4.9-22.7-1.2-7.1,3.3-12.1,10.4-15.5,17.2-1.4,2.9-1.6,6.7-2.8,9.7-1.3,3.6-3,7.1-5,10.4-.2,.3-.4,.6-.6,.9Z"/><path class="cls-18" d="M211.7,162.4c1.6-3.6,4-7,7-9,5.4-3.8,13.2-3.1,19.3-1.7,3.5,.8,7,2.3,10.7,2.3,3.3,0,6.7-3.3,9.9-2.2,1.4,.5,2.5,1.7,2.8,3.2,.5,2.4-1,4.7-2.1,6.9-.9,1.7-1.7,3.5-2.8,5.1-1.5,2-4,3.7-6.5,4-.9,0-1.7,0-2.6,0-5.2-.5-9.5-2-13.5,2.1-2.7,2.8-4,6.6-6,9.8-.5,.8-1,1.6-1.8,2.1-1,.6-2.4,.6-3.5,.9-5.1,1.2-8.5,9.8-13.9,7.9-4.6-1.6-3.6-5.8-1.8-9.1,2.3-4.2,1.8-9.2,2.5-13.9,.4-2.6,1.2-5.5,2.4-8.2Z"/><path class="cls-16" d="M212.9,182.2c-1.2,1.6-1.8,3.5-2.2,5.4-.3,1.7-.5,3.4,0,5s1.8,3.1,3.5,3.4c1.3,.2,2.7-.3,3.7-1.2,2.4-2.1,5.2-8.5,4.5-11.8-1-4.7-7.1-3.9-9.5-.8Z"/><path class="cls-6" d="M217.7,184c-1.3,.5-2.3,1.6-3,2.9-.6,1.3-.9,2.7-1.1,4.1"/><path class="cls-18" d="M251.6,184.9c.1,.6-.2,1.3-.9,1.4-.6,.1-1.3-.2-1.4-.9-.1-.6,.2-1.3,.9-1.4,.6-.1,1.3,.2,1.4,.9Z"/><path class="cls-18" d="M238.5,186c.1,.6-.3,1.2-1,1.3-.6,.1-1.2-.3-1.3-1-.1-.6,.3-1.2,1-1.3,.6-.1,1.2,.3,1.3,1Z"/><path class="cls-23" d="M221.5,282.1c-.5,3.3-.9,6.5-1.1,9.8-.3,4.5-.2,9.2,2.3,12.9,1.5,2.4,3.9,4.1,6.4,5.5,3.7,2.1,10,4,14,1.7,3.5-2,5.2-7.3,6.3-10.9,1.7-6.2,2.6-12.6,3-19h-30.8Z"/><path class="cls-21" d="M185.6,262.7c-1.8-5.2-3.6-10.4-5.5-15.6,.1,.4-1,2.1-1.2,2.5-.4,.9-.8,1.8-1.2,2.7-.8,1.9-1.7,3.7-2.5,5.5-1.6,3.5-3.2,7.1-5.2,10.4-1.6-.5-3.1-1.3-4.4-2.4-.5,3.2-1.5,6.1-2.2,9.3-.3,1.6-.6,3.3-.9,4.9-.2,.8-.3,1.7-.5,2.5,0,.3-.2,2.1-.5,2.3,8.5-5,16.3-11.2,23.1-18.3,.5-.6,1.1-1.2,1.2-2,0-.6-.1-1.2-.3-1.8Z"/><path class="cls-18" d="M252.4,178.6c-1.6-.2-3.2,.2-4.6,1.1-.6,.4-1,1.2-.6,1.9,.3,.6,1.3,1,1.9,.6,1-.7,2-.9,3.1-.7,.8,.1,1.4-.6,1.5-1.3,0-.8-.6-1.4-1.3-1.5Z"/><path class="cls-18" d="M241.1,180.8c-2-.9-4.1-.5-6.1,0-1.5,.4-1.2,2.9,.4,2.5,1.6-.4,3.2-.9,4.7-.2,1.5,.7,2.4-1.7,.9-2.3Z"/><path class="cls-22" d="M223.4,207.5c-.1,2.6-.2,5.2-.3,7.8,0,1.4,0,2.7,0,4.1,0,.2,0,.7,0,1.2,1.6-.4,3.2-.7,4.7-1.3,2.1-1,4.2-2.3,5.3-4.5,.4-.8,.7-1.7,.9-2.6-3.6-.7-7.7-2.1-10.4-4.7Z"/><path class="cls-16" d="M195.9,313.4c13.5,1.6,28.5,3.4,41.5-.5-2.1-3-4.2-6-6.9-8.6s-6-4.5-9.7-4.9c-1.9-.2-3.9,0-5.8,.2-3.4,.4-7.7,2.2-11.1,1.9-2.8-.2-6.5-2.7-9.2-3.7-18.1-7.2-39.6-16.9-59.5-11.7-10,2.6-16.1,11-9.1,20.4,3.9,5.3,10.1,4.3,16.2,4.4,16.4,.3,32.9,.1,49.2,2,1.4,.2,2.9,.3,4.3,.5Z"/><path class="cls-18" d="M236.8,201.4l-1-.2c.6-2.1,1.3-3.7,2.3-5,1.3-1.6,3-2.7,4.8-2.9,.6,0,1.2,0,1.7,.1,1,.3,2,1.2,2.5,2.4l-.9,.4c-.4-.9-1.1-1.6-1.9-1.9-.4-.1-.8-.2-1.3,0-1.5,.2-3,1.1-4.1,2.5-.9,1.2-1.6,2.6-2.1,4.6Z"/><path class="cls-24" d="M162,280.1c-.1-.2-.3-.5-.4-.7-.9-1.5-1.8-3.1-2.7-4.7-1.3,1.2-2.5,2.4-3.9,3.5-1.9,1.3-3.6,2.9-5.2,4.5-1,1-1.9,2.1-2.8,3.1,.2,.6,.5,1.1,.7,1.7,.1,.3,.2,.6,.4,.9,.6-.2,1.3-.4,1.9-.6,3.2-.9,7.5-2.2,11-1.7,.2-2,1-3.8,1.1-5.8,0,0,0-.1,0-.2Z"/><path class="cls-14" d="M240.8,205.4c-.6,0-1.4,.4-1.7,.9-.1,.3,0,.6,0,.8,0,.2,.2,.4,.4,.4,.7,.2,1.3-.2,1.8-.7,.4-.6,.2-1.4-.6-1.4Z"/><path class="cls-14" d="M241.8,177.8c-.7-.3-1.5-.5-2.2-.6-.6,0-.6,.9,0,1,.7,0,1.3,.3,2,.5,.6,.2,.9-.7,.3-1Z"/><path class="cls-14" d="M248,176.4c-.5,.2-1,.3-1.6,.5-.6,.2-.4,1.2,.3,1,.5-.2,1-.3,1.6-.5,.6-.2,.4-1.2-.3-1Z"/></g><g><path class="cls-20" d="M133.5,37h104.7c16.8,0,30.5,13.6,30.5,30.5v40.8H133.5c-16.8,0-30.5-13.6-30.5-30.5v-10.4c0-16.8,13.6-30.5,30.5-30.5Z"/><g><path class="cls-11" d="M163.3,79.4h-3.1v5.4h-7.4v-5.4h-11.1v-5.5l11.5-16.9h6.9v16.8h3.1v5.6Zm-10.4-5.6v-3.2c0-.6,0-1.4,0-2.5,0-1,0-1.6,.1-1.6h-.2c-.4,1-.9,1.9-1.5,2.7l-3.1,4.6h4.6Z"/><path class="cls-11" d="M193.1,70.9c0,4.9-.8,8.5-2.5,10.8-1.6,2.3-4.2,3.4-7.5,3.4s-5.8-1.2-7.5-3.6c-1.7-2.4-2.5-5.9-2.5-10.6s.8-8.5,2.5-10.8c1.6-2.3,4.2-3.5,7.5-3.5s5.8,1.2,7.5,3.6c1.7,2.4,2.5,6,2.5,10.7Zm-12.6,0c0,3.1,.2,5.3,.6,6.5,.4,1.2,1,1.8,2,1.8s1.6-.6,2-1.8c.4-1.2,.6-3.3,.6-6.4s-.2-5.2-.6-6.5c-.4-1.2-1-1.8-2-1.8s-1.6,.6-2,1.8c-.4,1.2-.6,3.4-.6,6.5Z"/><path class="cls-11" d="M224.4,79.4h-3.1v5.4h-7.4v-5.4h-11.1v-5.5l11.5-16.9h6.9v16.8h3.1v5.6Zm-10.4-5.6v-3.2c0-.6,0-1.4,0-2.5,0-1,0-1.6,.1-1.6h-.2c-.4,1-.9,1.9-1.5,2.7l-3.1,4.6h4.6Z"/></g></g><g><path class="cls-11" d="M93.7,125.2h75c12.7,0,23,10.3,23,23v30.9H93.7c-12.7,0-23-10.3-23-23v-7.8c0-12.7,10.3-23,23-23Z"/><g><path class="cls-16" d="M108.8,158.1c-1.7,0-3-.5-3.9-1.4-.9-.9-1.4-2.2-1.4-3.9s.4-3.1,1.3-4c.9-.9,2.1-1.4,3.6-1.4s2.6,.4,3.4,1.2c.8,.8,1.2,2,1.2,3.4v1.4h-6.7c0,.8,.3,1.4,.7,1.9,.4,.4,1.1,.7,1.9,.7s1.2,0,1.8-.2c.6-.1,1.1-.3,1.7-.6v2.2c-.5,.2-1,.4-1.6,.5-.6,.1-1.2,.2-2,.2Zm-.4-8.7c-.6,0-1.1,.2-1.4,.6-.3,.4-.5,.9-.6,1.6h4c0-.7-.2-1.2-.5-1.6-.4-.4-.8-.6-1.4-.6Z"/><path class="cls-16" d="M122.9,147.4c.4,0,.7,0,1,0l-.2,2.6c-.2,0-.5,0-.8,0-.9,0-1.6,.2-2.1,.7-.5,.5-.8,1.1-.8,1.9v5.3h-2.8v-10.3h2.1l.4,1.7h.1c.3-.6,.8-1,1.3-1.4,.5-.4,1.1-.5,1.8-.5Z"/><path class="cls-16" d="M133.4,147.4c.4,0,.7,0,1,0l-.2,2.6c-.2,0-.5,0-.8,0-.9,0-1.6,.2-2.1,.7-.5,.5-.8,1.1-.8,1.9v5.3h-2.8v-10.3h2.1l.4,1.7h.1c.3-.6,.8-1,1.3-1.4,.5-.4,1.1-.5,1.8-.5Z"/><path class="cls-16" d="M147.5,152.7c0,1.7-.4,3-1.3,3.9-.9,.9-2.1,1.4-3.7,1.4s-1.9-.2-2.6-.7c-.8-.4-1.3-1.1-1.7-1.9-.4-.8-.6-1.8-.6-2.8,0-1.7,.4-3,1.3-3.9,.9-.9,2.1-1.4,3.7-1.4s1.9,.2,2.6,.6c.8,.4,1.3,1,1.7,1.9,.4,.8,.6,1.8,.6,2.8Zm-7.1,0c0,1,.2,1.8,.5,2.3,.3,.5,.9,.8,1.6,.8s1.3-.3,1.6-.8c.3-.5,.5-1.3,.5-2.3s-.2-1.8-.5-2.3c-.3-.5-.9-.8-1.6-.8s-1.3,.3-1.6,.8c-.3,.5-.5,1.3-.5,2.3Z"/><path class="cls-16" d="M157.5,147.4c.4,0,.7,0,1,0l-.2,2.6c-.2,0-.5,0-.8,0-.9,0-1.6,.2-2.1,.7-.5,.5-.8,1.1-.8,1.9v5.3h-2.8v-10.3h2.1l.4,1.7h.1c.3-.6,.8-1,1.3-1.4,.5-.4,1.1-.5,1.8-.5Z"/></g></g><path class="cls-25" d="M304,289.2l-25.9-96.6c-3.6-13.6-15.8-23.1-29.9-23.4h0c-26.7-.6-42.1,30.1-25.6,51.2,27.1,34.5,57,73.3,57,73.3l24.4-4.4Z"/><g><path class="cls-17" d="M289.1,114.8h52.4c10.4,0,18.9,8.5,18.9,18.9v6.4c0,10.4-8.5,18.9-18.9,18.9h-71.3v-25.3c0-10.4,8.5-18.9,18.9-18.9Z"/><g><circle class="cls-11" cx="301.9" cy="136.9" r="2.3"/><path class="cls-11" d="M317.6,136.9c0,1.3-1,2.3-2.3,2.3s-2.3-1-2.3-2.3,1-2.3,2.3-2.3,2.3,1,2.3,2.3Z"/><circle class="cls-11" cx="328.6" cy="136.9" r="2.3"/></g></g><g><path class="cls-13" d="M135.8,300.5c-1.4,0-2.7-.1-3.8-.4l.4-2.1c4.4,.9,11.5,0,13.5-4.2,.6-1.3,.6-2.9,0-4.1-.7-1.3-1.7-2.2-3.1-2.6-2.7-.8-6.2,.1-8.5,1.4l-1.1-1.9c2.5-1.4,6.7-2.7,10.2-1.6,2,.6,3.5,1.9,4.4,3.7,.9,1.9,1,4.2,0,6-2,4.2-7.4,5.7-12.1,5.7Z"/><path class="cls-13" d="M104.5,279.8h34.8v14.2c0,7.6-6.1,13.7-13.7,13.7h-7.4c-7.6,0-13.7-6.1-13.7-13.7v-14.2h0Z"/><path class="cls-11" d="M148.9,309.8h-53.5c-.9,0-1.6-.7-1.6-1.6h0c0-.9,.7-1.6,1.6-1.6h53.5c.9,0,1.6,.7,1.6,1.6h0c0,.9-.7,1.6-1.6,1.6Z"/></g><g><g class="cls-9"><g><path class="cls-19" d="M351.1,273.9c.3-1.9,.9-3.7,2.5-4.5,2.2-1.3,5.1-.2,7.6-.7,7.1-1.3,7-11.2,6.9-16.6,0-3.5-.2-6.9-.5-10.4,0-.9-.1-1.9-.6-2.7-.9-1.4-2.8-1.8-4.4-1.4-3.1,.9-4.8,4.2-5.4,7.4-.5,3.2-.3,6.5-1.1,9.6-.2,.6-.4,1.2-.7,1.7-.4,.6-.9,1-1.5,1.3-.9,.4-2,.5-2.9,0-1-.6-.8-1.4-.8-2.4,0-1.1-.2-2.3-.3-3.5-.3-2.6-.6-5.2-.8-7.8-.5-5.1-.9-10.3-1.4-15.4-.2-2.3-.5-4.8-1.7-6.9-5.1-9.1-12.8-1.1-13.5,5.5-1.6,15.1,6.2,29.3,5.6,44.3,0,.6,0,1.3-.3,1.9-1.2,2.4-5,1.9-6.7,.6-2.7-2.1-1.8-6.8-1.8-9.5,0-2.3-.7-4.8-2.9-5.9-2.5-1.2-5.7,.2-7.2,2.5-1.8,2.9-1.6,7.8-1.4,11,.2,2.3,.7,4.6,2.1,6.6,1.4,2,3.6,3.5,6.1,3.6,1.5,0,3.1-.2,4.2,.7,1.4,1.1,.9,3,.9,4.7,.1,3.2,2.9,6,6.1,7.4,3.2,1.4,6.9,1.6,10.4,1.8,3-4.8,3.2-10.4,3.4-15.8,0-1.8-.2-4.6,.1-7Z"/><path class="cls-6" d="M341.5,218.1c3.6,25,6.7,50.5,2.3,75.4"/><path class="cls-6" d="M338.1,218c-1,4.7-2,9.4-2,14.1,0,9.1,3.9,17.7,5.4,26.7,1.7,10,.4,20.2-.8,30.3"/><path class="cls-6" d="M345.9,262.2c4.4-.6,9.6-1.3,12.3-4.7,.4-.5,.7-1,.9-1.6,.7-2.4,.4-5.1,.4-7.5,0-2.3,0-6.4,0-9.5"/><path class="cls-6" d="M342,278.8c-3.9,.6-8.2,1.2-11.6-.7-2.1-1.2-3.5-3.2-4.2-5.3-.7-2.1-.9-4.4-.9-6.6,0-2.4,.2-4.8,.6-7.2"/><path class="cls-6" d="M345.9,266.2c5-.7,9.9-2,14.5-3.8,1-.4,2-.8,2.7-1.5,.8-.8,1.1-1.8,1.4-2.8,.7-2.3,1-17.8,.2-21.5"/></g></g><polygon class="cls-10" points="327.4 288.4 356.7 287.8 353.7 309.6 331.3 309.6 327.4 288.4"/></g><g><rect class="cls-11" x="193.7" y="305.2" width="128.7" height="5.9" rx="2.5" ry="2.5"/><path class="cls-11" d="M322.8,311h-110l9.6-63.2c.3-2.2,2.2-3.8,4.4-3.8h101.3c2.6,0,4.6,2.4,4.2,5l-9.4,62Z"/><circle class="cls-3" cx="277.9" cy="273" r="5.3"/><g><path class="cls-5" d="M283.3,239.1c-.7-2.9-1-5.9-1-8.8,0-2.9,.4-5,2.4-7.2,1.3-1.5,3.1-3.4,4.7-4.6,4.4-3.5,6.1-9.9,3.9-15.1"/><path class="cls-5" d="M292.5,230.6c-.6-2.5,.8-5,2.5-6.9,1.7-1.9,3.9-3.4,5.4-5.4,3.2-4.4,3.1-8.5,2.5-16.7-.4-5.8-.3-12.3,3.8-16.3"/></g></g><rect class="cls-20" x="36.9" y="308.9" width="325.4" height="7" rx="3" ry="3"/><path class="cls-4" d="M391.9,127.3c2.5,15.7,3.5,32.5-3.7,46.7-4,7.9-10.3,14.4-13.9,22.6-3.8,8.7-5.2,17.7-6.1,27.1"/><path class="cls-4" d="M68.3,101.1c-10,12.1-24.8,18.9-36.8,29C12,146.3,.5,171.6,1,197"/><path class="cls-4" d="M287.2,1c16.3,5.1,30.2,17.4,37.2,33"/><path class="cls-4" d="M59.7,335.4c22,19.4,50.6,31.2,79.8,33"/><path class="cls-2" d="M279.1,341.2c5.4-2.4,10.6-5.1,15.7-8"/><path class="cls-2" d="M206.1,355.9c21.3-.9,39.7-1.9,62.7-11"/></svg>