<?xml version="1.0" encoding="UTF-8"?><svg xmlns="http://www.w3.org/2000/svg" viewBox="0 0 390.1 354.3"><defs><style>.cls-1,.cls-2{opacity:0;}.cls-1,.cls-3,.cls-4,.cls-5,.cls-6,.cls-7,.cls-8{fill:#fff;}.cls-9{fill:#ebebeb;}.cls-10{fill:#f0f0f0;}.cls-11{fill:#e6e6e6;}.cls-12{fill:#f5f5f5;}.cls-13{fill:#fafafa;}.cls-14{fill:#932a2a;}.cls-15{fill:#e0e0e0;}.cls-16{fill:#dd8c6a;}.cls-17{fill:#407bff;}.cls-18,.cls-19{fill:#263238;}.cls-19,.cls-4,.cls-20{opacity:.2;}.cls-21,.cls-7{opacity:.3;}.cls-22,.cls-8{opacity:.4;}.cls-23{opacity:.7;}.cls-5{opacity:.5;}.cls-6{opacity:.8;}</style></defs><g id="Background_Complete"><g><path class="cls-13" d="M116,59.6l-29.1-1.7c-1,0-2.1,.2-3,.7h0c-9.6,8.3-20,2.8-24.6-.5-1.7-1.3-3.8-2-5.9-2.1l-32.5-1.9c-12.2-.7-14.1-17.9-2.4-21.3,.1,0,.3,0,.5-.1-12.1-11.3,17.1-32.1,45.6,.6-1.8-10.5,25-5.2,32.4,9.4,3.5-9.1,28.2,8.5,19,16.9Z"/><path class="cls-12" d="M138.7,21.9c3.7-10.7,11.7-24.5,39.7-21.5,28.1,3,14,20,30,22,16,2.1,13.7-6.3,26.7,7,13,13.3,11.5,1.7,22.6,8.3,11.1,6.6-127.9,9.1-119.1-15.9Z"/><path class="cls-12" d="M301.6,54.4l20.5-.4,1.7,.7c9.4,4,20.1,3.5,29.1-1.3h0l17.2-.3s16-6.4,13.6-22.4c-2.4-16-26.4-2.2-26.4-2.2,0,0,6.9-22.5-16.5-15.7-23.4,6.8-25.2,29-25.2,29,0,0-31-4.8-14,12.5Z"/></g><g><g><g><g><g><path class="cls-15" d="M355.7,288.3h-.7c0-.3-4.4-37,4.6-67,9-29.8,2.8-48.8,2.7-49l.7-.2c0,.2,6.3,19.4-2.7,49.5-9,29.9-4.6,66.4-4.6,66.8Z"/><path class="cls-15" d="M363.6,176.4c-1.6-1.9-3.7-3.2-6.1-3.8l.2-.7c2.5,.6,4.8,2,6.5,4l-.6,.5Z"/><rect class="cls-15" x="364.7" y="180" width="2.4" height=".7" transform="translate(-41.4 203.2) rotate(-29.5)"/><path class="cls-15" d="M362.8,196.3c-1.8-4.1-5.2-7.4-9.4-9.1l.3-.7c4.3,1.7,7.9,5.2,9.8,9.5l-.7,.3Z"/><path class="cls-15" d="M360.9,219.3h-.7c0-3-1.4-5.8-3.8-7.7l.5-.6c2.5,2,4,5,4,8.2Z"/><path class="cls-15" d="M359.3,225.2l-.7-.3c.7-1.9,2.3-3.4,4.1-4.1l.3,.7c-1.7,.6-3.1,2-3.7,3.7Z"/><path class="cls-15" d="M354.5,262.4l-.6-.5c.9-1.1,1.6-5.1,1.9-7.3,0-.5,.2-1,.2-1.3h.7c0,.5-.1,.9-.2,1.4-.5,3.3-1.1,6.5-2.1,7.7Z"/><path class="cls-15" d="M354.1,274.1c-.9-2.9-3.9-4.9-7-4.8v-.7c3.3-.2,6.6,2.1,7.6,5.3l-.7,.2Z"/><rect class="cls-15" x="353.5" y="284.4" width="7.7" height=".7" transform="translate(-93.1 361.6) rotate(-48.2)"/></g><g><path class="cls-10" d="M363.3,244.2c1.2,3.8-7,10.9-7,10.9,0,0-10.7-1.3-11.9-5.1s1.6-9.9,6.8-11.5c5.2-1.6,10.9,1.9,12.1,5.7Z"/><path class="cls-9" d="M372.3,198.5c-1,4-8.7,6.8-8.7,6.8,0,0-5.4-6.2-4.3-10.2,1-4,5.3-8.4,8.9-7.5,3.6,.9,5.2,6.8,4.2,10.8Z"/><path class="cls-12" d="M341.5,258.3c4.8,1.9,7.8,10.4,7.8,10.4,0,0-8,4.3-12.8,2.4-4.8-1.9-9.9-7.2-8.6-10.7,1.4-3.5,8.7-4,13.6-2.1Z"/><path class="cls-11" d="M352.1,211.3c1,.8,2.1,1.5,3.3,1.9,1.2,.3,2.7,.1,3.5-.8,1-1.2,.8-3,.1-4.5-1.3-2.8-6-7.7-9.7-6.3-5.3,2,.4,8,2.8,9.7Z"/><path class="cls-9" d="M362.9,218.5c-.7,.9-1.4,1.9-1,3,.3,.9,1.5,1.3,2.4,1.2,1-.1,1.8-.7,2.6-1.3,1.9-1.3,5.7-4,3.2-6.5-2.5-2.6-5.8,1.8-7.2,3.7Z"/><path class="cls-15" d="M347.3,182.4c-.8,0-1.6,.6-1.7,1.4-.2,.9,.6,1.7,1.3,2.3,1.8,1.4,7.4,5.3,8.6,1.6,1.2-3.5-5.8-5.5-8.3-5.3Z"/><path class="cls-11" d="M357.5,170.2c-1.1,.1-2.3-.3-3.4-.2-1.1,0-2.4,1-2.2,2.1,.2,1,1.5,1.4,2.6,1.5,1.8,.1,3.6,0,5.4-.4,.4,0,.9-.2,1.1-.6,.5-.7-.3-1.6-1.1-1.8-.8-.2-1.7-.2-2.4-.6h0Z"/><path class="cls-10" d="M368.7,178.1c1.2,0,2.3-.5,3.4-.5,1.2,0,2.5,.8,2.3,2-.2,1.1-1.4,1.5-2.5,1.6-1.8,.2-3.6,.2-5.4,0-.4,0-.9-.1-1.1-.5-.5-.7,.2-1.6,.9-1.9,.8-.3,1.7-.3,2.4-.7h0Z"/><path class="cls-10" d="M367.6,263c.3-.2,.6-.5,1-.5,.5,0,.9,.5,1,1,0,.5,0,1-.2,1.5-.8,2.6-9.5,21.5-11.6,18.1-1.2-2,1.7-8.7,2.6-10.5,1.7-3.6,4.1-6.9,7.2-9.5Z"/></g></g><path class="cls-11" d="M362.4,171c.7-1.6,1.4-3.2,2.8-4.2,1.4-1,3.6-1.1,4.6,.3,1.1,1.5,0,3.9-1.7,4.7-1.7,.8-3.7,.6-5.6,.3,0-.3,0-.6,0-.8v-.3Z"/></g><path class="cls-11" d="M368.4,313.3h0c-9.2,1.9-19,1.9-28.2,0h0l-7.4-32.3h42.9l-7.4,32.3Z"/></g><g><g><g><rect class="cls-9" x="58.8" y="105.2" width="26.5" height="49.2" transform="translate(144.1 259.6) rotate(180)"/><rect class="cls-12" x="66.2" y="105.2" width="26.5" height="49.2" transform="translate(158.9 259.6) rotate(180)"/><rect class="cls-12" x="56.7" y="94.5" width="39.5" height="10.7"/><rect class="cls-9" x="56.7" y="94.5" width="6.1" height="10.7"/></g><rect class="cls-11" x="35" y="179.7" width="179.6" height="133.3" transform="translate(249.6 492.7) rotate(180)"/><g><polygon class="cls-12" points="123.3 78.1 224.9 179.7 21.7 179.7 123.3 78.1"/><rect class="cls-15" x="21.7" y="179.7" width="203.2" height="11.7" transform="translate(246.6 371.1) rotate(180)"/></g></g><g><rect class="cls-15" x="95.1" y="202.7" width="50.5" height="50.5"/><rect class="cls-10" x="97" y="202.7" width="50.5" height="50.5"/><rect class="cls-3" x="99.4" y="204.7" width="45.5" height="45.5"/><rect class="cls-15" x="143.3" y="204.7" width="1.6" height="45.5"/><rect class="cls-15" x="120.6" y="207.6" width="1.6" height="44.2" transform="translate(-108.3 351.1) rotate(-90)"/><rect class="cls-10" x="98.6" y="226.2" width="46.4" height="2.7"/></g></g></g></g><g id="Shadow"><ellipse id="_Path_" class="cls-12" cx="193.9" cy="343" rx="193.9" ry="11.3"/></g><g id="Sign"><g><path class="cls-17" d="M301.7,257.7l14.8,84.7h11.4l-.9-7h16.4l1.6,7h11.4l-14.8-84.7h-39.8Zm8.7,8.4c-.3-2.9,1.9-5.2,4.8-5.2h13.4c1.4,0,2.8,.6,3.8,1.5,1,.9,1.7,2.3,1.9,3.7,.3,2.9-1.9,5.2-4.8,5.2h-13.4c-1.4,0-2.8-.6-3.8-1.5-1-.9-1.7-2.3-1.9-3.7Z"/><path class="cls-21" d="M301.7,257.7l14.8,84.7h11.4l-.9-7h16.4l1.6,7h11.4l-14.8-84.7h-39.8Zm9.5,8.4c-.5-2.9,1.4-5.2,4.3-5.2h13.4c1.4,0,2.9,.6,4,1.5,1.1,.9,1.9,2.3,2.2,3.7,.5,2.9-1.4,5.2-4.3,5.2h-13.4c-1.4,0-2.9-.6-4-1.5-1.1-.9-1.9-2.3-2.2-3.7Z"/><path class="cls-17" d="M301.7,257.7l-14.8,84.7h11.4l1.6-7h16.4l-.9,7h11.4l14.8-84.7h-39.8Zm28.2,12.1c-1.1,.9-2.5,1.5-4,1.5h-13.4c-2.9,0-4.8-2.3-4.3-5.2,.3-1.4,1.1-2.8,2.2-3.7,1.1-.9,2.5-1.5,4-1.5h13.4c2.9,0,4.8,2.3,4.3,5.2-.3,1.4-1.1,2.8-2.2,3.7Z"/><g><path class="cls-18" d="M317.1,294.4h-3l1.1-6.2c0-.4,.4-.7,.8-.7h1.6c.4,0,.6,.3,.6,.7l-1.1,6.2Z"/><path class="cls-18" d="M325.4,300.1h-21.9l.6-3.3c.3-1.6,1.8-2.8,3.3-2.8h16.3c1.6,0,2.6,1.3,2.3,2.8l-.6,3.3Z"/><path class="cls-17" d="M325.4,300.1l-2.9,16.7h-5s.7-6.2,.7-6.2l-1.4,6.1h-3.8s.7-6.1,.7-6.1l-1.4,6.1h-7.3c0,0,1.1-6.1,1.1-6.1l-1.9,6h-6.2c0,0,.6-1.4,.6-1.4,2.5-5.3,4-9.6,5-15.1h21.9Z"/><path class="cls-5" d="M325.4,300.1l-2.9,16.7h-5s.7-6.2,.7-6.2l-1.4,6.1h-3.8s.7-6.1,.7-6.1l-1.4,6.1h-7.3c0,0,1.1-6.1,1.1-6.1l-1.9,6h-6.2c0,0,.6-1.4,.6-1.4,2.5-5.3,4-9.6,5-15.1h21.9Z"/></g></g></g><g id="Device"><g><g><path class="cls-17" d="M264.3,289.8h-101.9c-11.5,0-20.1-9.3-19.3-20.8L160.1,25.4c.8-11.5,10.7-20.8,22.2-20.8h101.9c11.5,0,20.1,9.3,19.3,20.8l-17,243.6c-.8,11.5-10.7,20.8-22.2,20.8Z"/><path class="cls-18" d="M259,289.8h-101.9c-11.5,0-20.1-9.3-19.3-20.8L154.8,25.4c.8-11.5,10.7-20.8,22.2-20.8h101.9c11.5,0,20.1,9.3,19.3,20.8l-17,243.6c-.8,11.5-10.7,20.8-22.2,20.8Z"/><g><path class="cls-17" d="M278.6,9.4h-26.5c-1.7,0-3.3,1.3-3.6,3l-.2,.8c-.8,4.2-4.6,7.4-8.9,7.4h-25.2c-4.2,0-7.6-3.1-7.8-7.4v-.8c-.1-1.7-1.5-3-3.3-3h-26.5c-8.8,0-16.5,7.2-17.1,16l-17,243.6c-.6,8.8,6,16,14.9,16h101.9c8.8,0,16.5-7.2,17.1-16l17-243.6c.6-8.8-6-16-14.9-16Z"/><path class="cls-6" d="M293.4,25.4l-.3,4.9-16.7,238.7c-.6,8.8-8.3,16-17.1,16h-101.9c-8.8,0-15.5-7.2-14.9-16L159.2,30.3l.4-4.9c.6-8.8,8.3-16,17.1-16h26.5c1.7,0,3.1,1.3,3.2,3v.8c.3,4.2,3.6,7.4,7.9,7.4h25.2c4.2,0,8.1-3.2,8.9-7.4l.2-.8c.3-1.7,1.9-3,3.6-3h26.5c8.8,0,15.5,7.2,14.9,16Z"/><path class="cls-23" d="M293.1,31l-16.7,238.7c-.6,8.8-8.3,16-17.1,16h-101.9c-8.8,0-15.5-7.2-14.9-16L159.2,31h133.9Z"/></g><g class="cls-23"><path d="M221.3,12.1c0,1.1-1,2-2.2,2s-2-.9-1.9-2c0-1.1,1-2,2.2-2s2,.9,1.9,2Z"/><path d="M235.7,10.1h-6.9c-1.1,0-2.1,.9-2.2,2,0,1.1,.8,2,1.9,2h6.9c1.1,0,2.1-.9,2.2-2,0-1.1-.8-2-1.9-2Z"/></g><g><polygon class="cls-17" points="171 20.6 173.1 20.6 173.3 18.4 171.1 18.4 171 20.6"/><polygon class="cls-17" points="175.4 18.4 175.2 20.6 177.4 20.6 177.5 18.4 177.7 16.3 175.5 16.3 175.4 18.4"/><polygon class="cls-17" points="180 14.1 179.8 16.3 179.7 18.4 179.5 20.6 181.7 20.6 181.8 18.4 182 16.3 182.1 14.1 180 14.1"/></g><path class="cls-17" d="M272.1,14.3v1.6h-1.2l-.2,3.1h1v1.6c-.1,0,9.3,0,9.3,0l.4-6.3h-9.4Zm3.9,4.7h-3.1l.2-3.1h3.1l-.2,3.1Z"/></g><g><g><path class="cls-17" d="M218.8,132.7l-4.4,2.3c.1,1.3,.4,2.6,.7,3.9h4.8c.7,2,1.6,4,2.9,5.7l-2.8,4.1c.8,1,1.7,2,2.6,2.9l4.3-2.5c1.6,1.4,3.5,2.5,5.5,3.4l-.5,4.8c1.2,.4,2.5,.8,3.8,1l2.7-4.2c1.1,.1,2.2,.2,3.3,.2s2.3,0,3.4-.2l2,4.2c1.4-.3,2.7-.6,4-1l.3-4.8c2.2-.9,4.2-2,6.1-3.4l3.9,2.5c1.1-.9,2.1-1.8,3.1-2.9l-2.1-4.1c1.5-1.8,2.8-3.7,3.9-5.8h4.8c.5-1.2,1-2.5,1.4-3.8l-4-2.3c.2-1.1,.4-2.2,.5-3.4,0-1.1,.1-2.3,0-3.4l4.4-2.3c-.1-1.3-.4-2.6-.7-3.9h-4.8c-.7-2-1.6-4-2.9-5.7l2.8-4.1c-.8-1-1.7-2-2.6-2.9l-4.3,2.5c-1.6-1.4-3.5-2.5-5.5-3.4l.5-4.8c-1.2-.4-2.5-.8-3.8-1l-2.7,4.2c-1.1-.1-2.2-.2-3.3-.2s-2.3,0-3.4,.2l-2-4.2c-1.4,.3-2.7,.6-4,1l-.3,4.8c-2.2,.9-4.2,2-6.1,3.4l-3.9-2.5c-1.1,.9-2.1,1.8-3.1,2.9l2.1,4.1c-1.5,1.8-2.8,3.7-3.9,5.8h-4.8c-.5,1.2-1,2.5-1.4,3.8l4,2.3c-.2,1.1-.4,2.2-.5,3.4,0,1.1-.1,2.3,0,3.4Zm16.6-3.4c.4-4.7,4.6-8.5,9.3-8.5s8.2,3.8,7.8,8.5c-.4,4.7-4.6,8.5-9.3,8.5s-8.2-3.8-7.8-8.5Z"/><path class="cls-8" d="M218.8,132.7l-4.4,2.3c.1,1.3,.4,2.6,.7,3.9h4.8c.7,2,1.6,4,2.9,5.7l-2.8,4.1c.8,1,1.7,2,2.6,2.9l4.3-2.5c1.6,1.4,3.5,2.5,5.5,3.4l-.5,4.8c1.2,.4,2.5,.8,3.8,1l2.7-4.2c1.1,.1,2.2,.2,3.3,.2s2.3,0,3.4-.2l2,4.2c1.4-.3,2.7-.6,4-1l.3-4.8c2.2-.9,4.2-2,6.1-3.4l3.9,2.5c1.1-.9,2.1-1.8,3.1-2.9l-2.1-4.1c1.5-1.8,2.8-3.7,3.9-5.8h4.8c.5-1.2,1-2.5,1.4-3.8l-4-2.3c.2-1.1,.4-2.2,.5-3.4,0-1.1,.1-2.3,0-3.4l4.4-2.3c-.1-1.3-.4-2.6-.7-3.9h-4.8c-.7-2-1.6-4-2.9-5.7l2.8-4.1c-.8-1-1.7-2-2.6-2.9l-4.3,2.5c-1.6-1.4-3.5-2.5-5.5-3.4l.5-4.8c-1.2-.4-2.5-.8-3.8-1l-2.7,4.2c-1.1-.1-2.2-.2-3.3-.2s-2.3,0-3.4,.2l-2-4.2c-1.4,.3-2.7,.6-4,1l-.3,4.8c-2.2,.9-4.2,2-6.1,3.4l-3.9-2.5c-1.1,.9-2.1,1.8-3.1,2.9l2.1,4.1c-1.5,1.8-2.8,3.7-3.9,5.8h-4.8c-.5,1.2-1,2.5-1.4,3.8l4,2.3c-.2,1.1-.4,2.2-.5,3.4,0,1.1-.1,2.3,0,3.4Zm16.6-3.4c.4-4.7,4.6-8.5,9.3-8.5s8.2,3.8,7.8,8.5c-.4,4.7-4.6,8.5-9.3,8.5s-8.2-3.8-7.8-8.5Z"/></g><g><path class="cls-17" d="M176.3,95.8l-7.3,3.9c.1,1.1,.3,2.2,.6,3.2h8c.6,1.4,1.3,2.9,2.2,4.3l-4.7,6.8c.7,.8,1.4,1.6,2.1,2.3l7.2-4.1c1.3,1,2.7,1.9,4.2,2.6l-.8,8c1,.3,2.1,.6,3.1,.9l4.5-7c.8,0,1.7,.1,2.5,.1s1.7,0,2.6-.1l3.3,7c1.1-.2,2.2-.5,3.3-.9l.6-8c1.6-.7,3.2-1.6,4.7-2.6l6.5,4.1c.9-.7,1.7-1.5,2.5-2.3l-3.5-6.8c1.1-1.4,2.1-2.9,2.9-4.4h8c.4-.9,.8-2,1.1-3.1l-6.6-3.9c.2-.8,.3-1.7,.4-2.6,0-.9,.1-1.7,0-2.6l7.3-3.9c-.1-1.1-.3-2.2-.6-3.2h-8c-.6-1.4-1.3-2.9-2.2-4.3l4.7-6.8c-.7-.8-1.4-1.6-2.1-2.3l-7.2,4.1c-1.3-1-2.7-1.9-4.2-2.6l.8-8c-1-.3-2.1-.6-3.1-.9l-4.5,7c-.8,0-1.7-.1-2.5-.1s-1.7,0-2.6,.1l-3.3-7c-1.1,.2-2.2,.5-3.3,.9l-.6,8c-1.6,.7-3.2,1.6-4.7,2.6l-6.5-4.1c-.9,.7-1.7,1.5-2.5,2.3l3.5,6.8c-1.1,1.4-2.1,2.9-2.9,4.4h-8c-.4,.9-.8,2-1.1,3.1l6.6,3.9c-.2,.8-.3,1.7-.4,2.6,0,.9-.1,1.7,0,2.6Zm13.7-2.6c.5-5.5,5.3-10,10.9-10s9.6,4.5,9.1,10c-.5,5.5-5.3,10-10.9,10s-9.6-4.5-9.1-10Z"/><path class="cls-7" d="M176.3,95.8l-7.3,3.9c.1,1.1,.3,2.2,.6,3.2h8c.6,1.4,1.3,2.9,2.2,4.3l-4.7,6.8c.7,.8,1.4,1.6,2.1,2.3l7.2-4.1c1.3,1,2.7,1.9,4.2,2.6l-.8,8c1,.3,2.1,.6,3.1,.9l4.5-7c.8,0,1.7,.1,2.5,.1s1.7,0,2.6-.1l3.3,7c1.1-.2,2.2-.5,3.3-.9l.6-8c1.6-.7,3.2-1.6,4.7-2.6l6.5,4.1c.9-.7,1.7-1.5,2.5-2.3l-3.5-6.8c1.1-1.4,2.1-2.9,2.9-4.4h8c.4-.9,.8-2,1.1-3.1l-6.6-3.9c.2-.8,.3-1.7,.4-2.6,0-.9,.1-1.7,0-2.6l7.3-3.9c-.1-1.1-.3-2.2-.6-3.2h-8c-.6-1.4-1.3-2.9-2.2-4.3l4.7-6.8c-.7-.8-1.4-1.6-2.1-2.3l-7.2,4.1c-1.3-1-2.7-1.9-4.2-2.6l.8-8c-1-.3-2.1-.6-3.1-.9l-4.5,7c-.8,0-1.7-.1-2.5-.1s-1.7,0-2.6,.1l-3.3-7c-1.1,.2-2.2,.5-3.3,.9l-.6,8c-1.6,.7-3.2,1.6-4.7,2.6l-6.5-4.1c-.9,.7-1.7,1.5-2.5,2.3l3.5,6.8c-1.1,1.4-2.1,2.9-2.9,4.4h-8c-.4,.9-.8,2-1.1,3.1l6.6,3.9c-.2,.8-.3,1.7-.4,2.6,0,.9-.1,1.7,0,2.6Zm13.7-2.6c.5-5.5,5.3-10,10.9-10s9.6,4.5,9.1,10c-.5,5.5-5.3,10-10.9,10s-9.6-4.5-9.1-10Z"/></g><g><path class="cls-17" d="M194.5,168.7l-4.9,2.6c0,.7,.2,1.4,.4,2.1h5.3c.4,1,.9,1.9,1.4,2.9l-3.1,4.5c.4,.5,.9,1.1,1.4,1.6l4.8-2.7c.9,.7,1.8,1.2,2.8,1.7l-.6,5.3c.7,.2,1.4,.4,2.1,.6l3-4.6c.6,0,1.1,0,1.7,0s1.1,0,1.7,0l2.2,4.6c.7-.2,1.5-.3,2.2-.6l.4-5.3c1.1-.5,2.1-1,3.1-1.7l4.3,2.7c.6-.5,1.2-1,1.7-1.6l-2.3-4.5c.7-.9,1.4-1.9,2-2.9h5.3c.3-.6,.5-1.3,.8-2l-4.4-2.6c.1-.6,.2-1.1,.2-1.7,0-.6,0-1.1,0-1.7l4.9-2.6c0-.7-.2-1.4-.4-2.1h-5.3c-.4-1-.9-1.9-1.4-2.9l3.1-4.5c-.4-.5-.9-1.1-1.4-1.6l-4.8,2.7c-.9-.7-1.8-1.2-2.8-1.7l.6-5.3c-.7-.2-1.4-.4-2.1-.6l-3,4.6c-.6,0-1.1,0-1.7,0s-1.1,0-1.7,0l-2.2-4.6c-.7,.2-1.5,.3-2.2,.6l-.4,5.3c-1.1,.5-2.1,1-3.1,1.7l-4.3-2.7c-.6,.5-1.2,1-1.7,1.6l2.3,4.5c-.7,.9-1.4,1.9-2,2.9h-5.3c-.3,.6-.5,1.3-.8,2l4.4,2.6c-.1,.6-.2,1.1-.2,1.7,0,.6,0,1.1,0,1.7Zm6.5-1.7c.4-5.1,5-9.2,10.1-9.2s8.9,4.1,8.4,9.2c-.4,5.1-5,9.2-10.1,9.2s-8.9-4.1-8.4-9.2Z"/><path class="cls-5" d="M194.5,168.7l-4.9,2.6c0,.7,.2,1.4,.4,2.1h5.3c.4,1,.9,1.9,1.4,2.9l-3.1,4.5c.4,.5,.9,1.1,1.4,1.6l4.8-2.7c.9,.7,1.8,1.2,2.8,1.7l-.6,5.3c.7,.2,1.4,.4,2.1,.6l3-4.6c.6,0,1.1,0,1.7,0s1.1,0,1.7,0l2.2,4.6c.7-.2,1.5-.3,2.2-.6l.4-5.3c1.1-.5,2.1-1,3.1-1.7l4.3,2.7c.6-.5,1.2-1,1.7-1.6l-2.3-4.5c.7-.9,1.4-1.9,2-2.9h5.3c.3-.6,.5-1.3,.8-2l-4.4-2.6c.1-.6,.2-1.1,.2-1.7,0-.6,0-1.1,0-1.7l4.9-2.6c0-.7-.2-1.4-.4-2.1h-5.3c-.4-1-.9-1.9-1.4-2.9l3.1-4.5c-.4-.5-.9-1.1-1.4-1.6l-4.8,2.7c-.9-.7-1.8-1.2-2.8-1.7l.6-5.3c-.7-.2-1.4-.4-2.1-.6l-3,4.6c-.6,0-1.1,0-1.7,0s-1.1,0-1.7,0l-2.2-4.6c-.7,.2-1.5,.3-2.2,.6l-.4,5.3c-1.1,.5-2.1,1-3.1,1.7l-4.3-2.7c-.6,.5-1.2,1-1.7,1.6l2.3,4.5c-.7,.9-1.4,1.9-2,2.9h-5.3c-.3,.6-.5,1.3-.8,2l4.4,2.6c-.1,.6-.2,1.1-.2,1.7,0,.6,0,1.1,0,1.7Zm6.5-1.7c.4-5.1,5-9.2,10.1-9.2s8.9,4.1,8.4,9.2c-.4,5.1-5,9.2-10.1,9.2s-8.9-4.1-8.4-9.2Z"/></g></g><path class="cls-4" d="M278.1,9.4h-101.9c-8.8,0-16.5,7.2-17.1,16l-17,243.6L278.1,9.4Z"/></g></g><g id="Sparkles"><g><g><path class="cls-17" d="M201.7,58.8c0,0,.3-1.8,.6-3.9,.5-4.4,3.1-7.8,6.4-8.4l2.4-.5s-3.7,0-5.2-1.1c-3.3-2.3-4-9.1-4-9.1,0,0-.9,6.8-4.2,9.1-1.5,1.1-5.2,1.1-5.2,1.1l2.4,.5c3.3,.7,5.9,4,6.4,8.4,.3,2.1,.5,3.8,.6,3.9Z"/><g class="cls-23"><path class="cls-3" d="M201.7,58.8c0,0,.3-1.8,.6-3.9,.5-4.4,3.1-7.8,6.4-8.4l2.4-.5s-3.7,0-5.2-1.1c-3.3-2.3-4-9.1-4-9.1,0,0-.9,6.8-4.2,9.1-1.5,1.1-5.2,1.1-5.2,1.1l2.4,.5c3.3,.7,5.9,4,6.4,8.4,.3,2.1,.5,3.8,.6,3.9Z"/></g></g><g><path class="cls-17" d="M127.8,76.6c.1,0,.5-2.7,.9-6,.8-6.8,4.9-12,9.9-13.1l3.7-.7s-5.7,0-8.1-1.7c-5.1-3.6-6.2-14-6.2-14,0,0-1.4,10.5-6.5,14-2.4,1.7-8.1,1.7-8.1,1.7l3.7,.7c5.1,1,9.1,6.3,9.9,13.1,.4,3.3,.8,5.9,.9,6Z"/><g class="cls-23"><path class="cls-3" d="M127.8,76.6c.1,0,.5-2.7,.9-6,.8-6.8,4.9-12,9.9-13.1l3.7-.7s-5.7,0-8.1-1.7c-5.1-3.6-6.2-14-6.2-14,0,0-1.4,10.5-6.5,14-2.4,1.7-8.1,1.7-8.1,1.7l3.7,.7c5.1,1,9.1,6.3,9.9,13.1,.4,3.3,.8,5.9,.9,6Z"/></g></g><g><path class="cls-17" d="M172,161.2c0,0,.3-1.8,.6-3.9,.5-4.4,3.1-7.8,6.4-8.4l2.4-.5s-3.7,0-5.2-1.1c-3.3-2.3-4-9.1-4-9.1,0,0-.9,6.8-4.2,9.1-1.5,1.1-5.2,1.1-5.2,1.1l2.4,.5c3.3,.7,5.9,4,6.4,8.4,.3,2.1,.5,3.8,.6,3.9Z"/><g class="cls-23"><path class="cls-3" d="M172,161.2c0,0,.3-1.8,.6-3.9,.5-4.4,3.1-7.8,6.4-8.4l2.4-.5s-3.7,0-5.2-1.1c-3.3-2.3-4-9.1-4-9.1,0,0-.9,6.8-4.2,9.1-1.5,1.1-5.2,1.1-5.2,1.1l2.4,.5c3.3,.7,5.9,4,6.4,8.4,.3,2.1,.5,3.8,.6,3.9Z"/></g></g></g></g><g id="Stair"><g><path class="cls-18" d="M86.7,342.5c1.6,.3,3-.8,3-2.4v-4.6s60.4,0,60.4,0v3.6c0,1.6,1.4,3.1,3,3.4,1.6,.3,3-.8,3-2.4l-1.1-229.9c0-1.6-1.3-3.1-3-3.4-1.6-.3-3,.8-3,2.4v3.7s-60.4,0-60.4,0v-2.7c0-1.6-1.4-3.1-3-3.4-1.6-.3-3,.8-3,2.4l1.1,229.9c0,1.6,1.3,3.1,3,3.4Zm63.2-55.3h-60.5l-.2-38.9h60.5l.2,38.9Zm-61.1-126h60.5l.2,38.9h-60.5l-.2-38.9Zm60.7,43.6l.2,38.9h-60.5l-.2-38.9h60.5Zm-.4-87.2l.2,38.9h-60.5l-.2-38.9h60.5Zm-59.4,213.2l-.2-38.9h60.5l.2,38.9h-60.5Z"/><path class="cls-18" d="M45.9,342.5c1.6,.3,3.1-.8,3.4-2.4l.8-4.6h60.5l-.6,3.6c-.3,1.6,.8,3.1,2.4,3.4,1.6,.3,3.1-.8,3.4-2.4l39.4-229.9c.3-1.6-.8-3.1-2.4-3.4-1.6-.3-3.1,.8-3.4,2.4l-.6,3.7h-60.5l.5-2.7c.3-1.6-.8-3.1-2.4-3.4-1.6-.3-3.1,.8-3.4,2.4l-39.4,229.9c-.3,1.6,.8,3.1,2.4,3.4Zm72.9-55.3H58.3l6.7-38.9h60.5l-6.7,38.9Zm-38.9-126h60.5l-6.7,38.9h-60.5l6.7-38.9Zm53,43.6l-6.7,38.9h-60.5l6.7-38.9h60.5Zm14.9-87.2l-6.7,38.9h-60.5l6.7-38.9h60.5ZM50.9,330.8l6.7-38.9h60.5l-6.7,38.9H50.9Z"/><path class="cls-4" d="M45.9,342.5c1.6,.3,3.1-.8,3.4-2.4l.8-4.6h60.5l-.6,3.6c-.3,1.6,.8,3.1,2.4,3.4,1.6,.3,3.1-.8,3.4-2.4l39.4-229.9c.3-1.6-.8-3.1-2.4-3.4-1.6-.3-3.1,.8-3.4,2.4l-.6,3.7h-60.5l.5-2.7c.3-1.6-.8-3.1-2.4-3.4-1.6-.3-3.1,.8-3.4,2.4l-39.4,229.9c-.3,1.6,.8,3.1,2.4,3.4Zm72.9-55.3H58.3l6.7-38.9h60.5l-6.7,38.9Zm-38.9-126h60.5l-6.7,38.9h-60.5l6.7-38.9Zm53,43.6l-6.7,38.9h-60.5l6.7-38.9h60.5Zm14.9-87.2l-6.7,38.9h-60.5l6.7-38.9h60.5ZM50.9,330.8l6.7-38.9h60.5l-6.7,38.9H50.9Z"/></g></g><g id="Character"><g><g><rect class="cls-18" x="166.8" y="76.2" width="59.5" height="8.9" transform="translate(393.1 161.3) rotate(180)"/><rect class="cls-1" x="166.8" y="78.8" width="59.5" height="3.7" transform="translate(393.1 161.3) rotate(180)"/></g><path class="cls-18" d="M64.2,149.4c-.5,0-1.1-.3-1.3-.8-.4-.7,0-1.6,.7-2L195.9,79.3c.7-.4,1.6,0,2,.7,.4,.7,0,1.6-.7,2L64.9,149.2c-.2,.1-.4,.2-.7,.2Z"/><g><path class="cls-16" d="M74.5,109.3s-10.8,11.3-7.8,17.2c3,5.9,9.7,14,9.7,14,0,0-.3,3.1,2.6,3.6l5.8-4.8s-4-.9-6.9-.9l-4.9-15.7,7.5-10.4-6.1-2.9Z"/><path class="cls-16" d="M84.9,139.3l1.6,2.7c.7,1.2,.4,2.7-.7,3.5l-.3,.2c-.8,.6-1.9,.7-2.8,.2l-3.6-1.9,5.8-4.8Z"/></g><g><g><polygon class="cls-16" points="49 254.9 44.4 267.6 51.4 270.3 56.9 258.6 49 254.9"/><g><path class="cls-17" d="M52.1,270.9c0,0-.1-.1,0-.2,0,0,0-.1,.2-.2,.1,0,3.2-.5,4.4,.3,.2,.1,.3,.4,.4,.6,0,.3,0,.6-.3,.8-.4,.3-1.5,0-2.4-.2-.8-.3-1.5-.6-2.2-1Zm.7,0c1.3,.7,3.2,1.4,3.7,1,0,0,.2-.1,.1-.4,0-.2-.1-.3-.3-.4,0,0-.2-.1-.3-.2-1.1-.2-2.2-.3-3.2,0Z"/><path class="cls-17" d="M52.1,270.9c0,0,0-.1,0-.2,0,0,1-2,2.2-2.4,.4-.1,.7-.1,1.1,0,.5,.2,.5,.5,.5,.7-.2,.9-2.5,1.8-3.5,1.9,0,0,0,0,0,0,0,0,0,0-.1,0Zm3-2.3c-.2,0-.5,0-.7,0-.8,.4-1.4,1.1-1.8,1.9,1.1-.2,2.7-1,2.9-1.5,0,0,0-.2-.3-.3h-.1Z"/><path class="cls-18" d="M51.8,269.6l-8-3c-.3-.1-.6,0-.8,.3l-3.9,6c-.3,.5-.2,1.2,.3,1.6,0,0,.1,0,.2,.1,2.9,1,5.5,1.8,9.2,3.2,4.3,1.6,3,1.7,8,3.6,3,1.2,4.8-2.1,3.6-2.7-5.6-2.9-5.5-4.9-7-7.8-.3-.6-.9-1-1.5-1.2Z"/></g><polygon class="cls-19" points="46.8 261 54.1 264.5 56.9 258.6 49 254.9 46.8 261"/></g><g><polygon class="cls-16" points="91 267 92.2 280.5 99.7 279.9 99.8 267 91 267"/><g><path class="cls-17" d="M101,279.7c0,0-.1,0-.2-.1,0,0,0-.2,0-.2,.1,0,2.8-1.7,4.1-1.4,.2,0,.5,.2,.6,.4,.2,.2,.2,.6,0,.8-.3,.4-1.3,.6-2.3,.7-.8,0-1.6,0-2.4-.1Zm.6-.3c1.5,.1,3.4,0,3.8-.5,0,0,0-.2,0-.4,0-.1-.2-.2-.4-.2-.1,0-.2,0-.4,0-1.1,.2-2.1,.6-3,1.2Z"/><path class="cls-17" d="M100.9,279.7c0,0,0,0,0-.2,0,0,.1-2.2,1.1-3.1,.3-.3,.6-.4,1-.4,.5,0,.7,.3,.7,.5,.2,.9-1.6,2.6-2.5,3.1,0,0,0,0,0,0,0,0,0,0-.1,0Zm1.9-3.2c-.2,0-.5,0-.6,.3-.6,.7-.9,1.6-1,2.4,1-.6,2.1-2,2.1-2.5,0,0,0-.2-.4-.2h-.1Z"/><path class="cls-18" d="M100.2,278.7l-8.6,.3c-.3,0-.6,.2-.7,.6l-1.3,7c-.1,.6,.3,1.2,.9,1.3,0,0,.2,0,.2,0,3.1-.2,5.8-.4,9.7-.6,4.5-.2,3.4,.4,8.7,.3,3.2,0,3.7-3.7,2.3-3.9-6.3-.6-7-2.4-9.5-4.6-.5-.4-1.2-.6-1.9-.6Z"/></g><polygon class="cls-19" points="99.8 267 91 267 91.6 274.1 99.7 273.8 99.8 267"/></g><g><path class="cls-17" d="M84.5,142.9s-13.4,8.9-11.3,34.9l-2.2,29.5s-13.3,8.9-24,50.2c0,0,3.6,3.1,9.4,4.6l32.1-49.1,11.9-51.1,1.4-17-17.3-2Z"/><path class="cls-2" d="M84.5,142.9s-13.4,8.9-11.3,34.9l-2.2,29.5s-13.3,8.9-24,50.2c0,0,3.6,3.1,9.4,4.6l32.1-49.1,11.9-51.1,1.4-17-17.3-2Z"/><path class="cls-20" d="M94.5,187.4l-4.8-18.8-7.7-3.8s0,36.6,3.5,52.9l3.2-4.8,5.9-25.5Z"/><path class="cls-17" d="M83.4,98.7s-4.2-.8-7.7,3.2c-3.5,4-7.2,11.1-7.2,11.1,0,0,4.5,5.6,9.7,4.9l5.2-19.2Z"/><path class="cls-2" d="M83.4,98.7s-4.2-.8-7.7,3.2c-3.5,4-7.2,11.1-7.2,11.1,0,0,4.5,5.6,9.7,4.9l5.2-19.2Z"/><path class="cls-2" d="M78.2,117.9l4.1-15.3-4.1,.5s-2.2,13.7,0,14.8Z"/><path class="cls-17" d="M87.7,142.9s-11.1,12.1-4.3,35.9l4.8,29.8s-6.1,28.4,1.4,62.2c0,0,5.8,.9,11.3-.3l6.9-63.6,3.5-60.8-23.6-3.3Z"/></g></g><g><path class="cls-18" d="M103.3,75.1c.3,0,.7,.3,.8,.8,0,.5,0,.9-.4,1-.3,0-.7-.3-.8-.8-.1-.5,0-.9,.4-1Z"/><path class="cls-14" d="M103.9,81.6c.8,0,1.7-.3,2.2-.9-1.2-1.1-2.3-2.3-3.2-3.7l.9,4.6Z"/><path class="cls-18" d="M100.7,73.7c.5-.6,1.2-.9,2-.8h0s0,0,0,0c.2,0,.3-.1,.3-.3,0-.2-.1-.3-.3-.3-.9,0-1.9,.3-2.5,1,0,0,0,.1,0,.2,0,.2,.1,.3,.3,.3,0,0,.1,0,.2,0Z"/><path class="cls-16" d="M98.7,90.3c-.9,3.5-.9,7.9,2.9,9.1,0,0,4.8,4-4.4,4s-9.6-4.6-9.6-4.6c3.2-3,2.6-9.3,1.7-13.8l9.4,5.3Z"/><g><path class="cls-17" d="M84.2,98s1.5-4,3.6-5.2c2.1-1.2,10.7,.6,12.1,1.2,1.3,.6,2.6,3.8,2.6,3.8l-18.2,.2Z"/><path class="cls-22" d="M84.2,98s1.5-4,3.6-5.2c2.1-1.2,10.7,.6,12.1,1.2,1.3,.6,2.6,3.8,2.6,3.8l-18.2,.2Z"/></g><path class="cls-17" d="M77.4,104.8c2.8,17,2,33.7,1.3,42.4-.1,1.4-.2,2.6-.3,3.6,0,.8-.1,1.4-.2,1.8l33-.2c0-.5,.1-1.1,.2-1.6,.1-1.2,.3-2.4,.4-3.6,2.8-23.7,2.4-36.2,1.2-42.4-.7-3.6-3.6-6.3-7.1-6.9-.4,0-1.7-.1-3.4-.2-.9,0-2,0-3.2-.1-3.6-.1-7.7-.2-10.5-.1-.5,0-.9,0-1.3,0-1,0-2.1,.2-3.1,.3-.6,0-1.2,.1-1.7,.2-3.3,.4-5.7,3.5-5.1,6.9Z"/><path class="cls-16" d="M86.1,76.6c0,.6,.1,1.2,.3,1.8,1.2,4.3,1.8,7.4,3.5,9.7,.6,.8,1.4,1.6,2.3,2.2,5.5,3.7,12.4-.6,12.5-6.8,.2-5.6-2.4-14.4-8.8-15.6-4.5-.9-8.9,2.1-9.8,6.6-.1,.7-.2,1.3-.1,2Z"/><g class="cls-20"><path d="M86.1,76.6c0,.6,.1,1.2,.3,1.8,1.2,4.3,1.8,7.4,3.5,9.7h6.5c0,0,3-7.5,3-7.5l.8-7.3s-8.8,2.8-14.1,3.2Z"/></g><path class="cls-18" d="M86.1,79.2c-1-1.3-3.5-5.5-3.4-7.1,2-2.5,4.6-4.7,7.6-5.7,3.3-1.2,6.8-1.3,10.2-.6,.8,1.2,1.4,2.8,1.8,4.2,.4,1.4,.3,3.1-.6,4.3-2.9,3.9-14.5,6.2-15.6,5Z"/><path class="cls-16" d="M99.7,75.8c1.8,.5,2.6,3.1,2.7,4.8,0,1.8-1.2,3-2.7,1.7-1.2-1-2-2.3-2.4-3.7-.4-1.8,.7-3.3,2.4-2.8Z"/><path class="cls-1" d="M82.8,72.1c.3,0,.6,.2,.9,.2,1.5,.2,3,.3,4.5,.2,.3,.6,.6,1.2,.9,1.8v-1.8c.3,.4,.7,1.1,1,1.5,0-.5,0-1.1,0-1.6,3.2-.4,6.3-1.8,8.6-4,.6-.6,1.2-1.2,1.5-2,0-.2,.2-.5,.2-.7-3.4-.7-6.8-.5-10.1,.7-3,1.1-5.5,3.2-7.5,5.7Z"/></g><path class="cls-20" d="M113.8,112.8c0-2.1-.2-3.9-.7-5.6l-4.8-2.4-2.9,4.3s4.6,9.5,8.5,13.4c.5-3.8,0-7.3,0-9.7Z"/><path class="cls-16" d="M110.9,103.3s15.1,9.9,14.1,9.8l19.8-7.3s1.1-3.6,1.4-3.9l1.9-1.6c.4-.5,1-.8,1.7-.7l1.4,.5c.8,.7,1.5,.7,1.5,1.1l-1.9,2-3.3,4.2s-16.6,10.2-20.8,13c-4.3,2.8-15.4-7.2-15.4-7.2l-.2-9.9Z"/><path class="cls-17" d="M106.9,99.9c4.4,.6,8.8,4.1,15.8,10.3,0,0-2.3,5.2-7.3,8.5,0,0-4-1.8-8.9-7.9-5.8-7.4-2.3-11.2,.4-10.8Z"/><path class="cls-20" d="M96.4,150.8h14.9c.1-1.2,.3-2.4,.4-3.6h-14.6l-.7,3.6Z"/><path class="cls-20" d="M78.3,150.8h1.5l.3-3.6h-1.4c-.1,1.4-.2,2.6-.3,3.6Z"/></g></g></svg>