<svg xmlns="http://www.w3.org/2000/svg" version="1.1" xmlns:xlink="http://www.w3.org/1999/xlink" width="512" height="512" x="0" y="0" viewBox="0 0 58 58" style="enable-background:new 0 0 512 512" xml:space="preserve" class=""><g><path fill="#f5f5f5" d="M33 0H13c-2.757 0-5 2.243-5 5v48c0 2.757 2.243 5 5 5h20c2.757 0 5-2.243 5-5V5c0-2.757-2.243-5-5-5z" opacity="1" data-original="#f5f5f5"></path><circle cx="23" cy="51" r="3" fill="#ffb74f" opacity="1" data-original="#ffb74f"></circle><path fill="#ffb74f" d="M30.851.474A1.003 1.003 0 0 0 30 0H16a.998.998 0 0 0-.895 1.447l1.447 2.895A2.986 2.986 0 0 0 19.236 6h7.527a2.984 2.984 0 0 0 2.684-1.658l1.447-2.895a.998.998 0 0 0-.043-.973z" opacity="1" data-original="#ffb74f"></path><g fill="#08f"><path d="M30 52h-1a1 1 0 1 1 0-2h1a1 1 0 1 1 0 2zM17 52h-1a1 1 0 1 1 0-2h1a1 1 0 1 1 0 2z" fill="#0088ff" opacity="1" data-original="#0088ff"></path><path d="M33 0H13c-2.757 0-5 2.243-5 5v48c0 2.757 2.243 5 5 5h20c2.757 0 5-2.243 5-5V5c0-2.757-2.243-5-5-5zm-4.618 2-.724 1.447a.995.995 0 0 1-.894.553h-7.527a.996.996 0 0 1-.895-.553L17.618 2zM36 53c0 1.654-1.346 3-3 3H13c-1.654 0-3-1.346-3-3V5c0-1.654 1.346-3 3-3h2.382l1.171 2.342A2.983 2.983 0 0 0 19.236 6h7.527a2.984 2.984 0 0 0 2.684-1.658L30.618 2H33c1.654 0 3 1.346 3 3z" fill="#0088ff" opacity="1" data-original="#0088ff"></path></g><path fill="#cae8f9" d="M54 10H22c-1.654 0-3 1.346-3 3v28c0 1.654 1.346 3 3 3h32c1.654 0 3-1.346 3-3V13c0-1.654-1.346-3-3-3z" opacity="1" data-original="#cae8f9"></path><circle cx="9" cy="28" r="8" fill="#ffdba9" opacity="1" data-original="#ffdba9"></circle><path fill="#ff3c62" d="m10.414 28 1.293-1.293a.999.999 0 1 0-1.414-1.414L9 26.586l-1.293-1.293a.999.999 0 1 0-1.414 1.414L7.586 28l-1.293 1.293a.999.999 0 1 0 1.414 1.414L9 29.414l1.293 1.293a.997.997 0 0 0 1.414 0 .999.999 0 0 0 0-1.414z" opacity="1" data-original="#ff3c62"></path><path fill="#ffb74f" d="M46.406 26.859a2 2 0 0 0-.818-1.394 12.9 12.9 0 0 0-7.587-2.439c-2.707 0-5.401.866-7.589 2.439a1.998 1.998 0 0 0-.341 2.935l1.989 2.292a1.999 1.999 0 0 0 2.626.347 5.906 5.906 0 0 1 6.629-.004 1.998 1.998 0 0 0 2.629-.347l1.986-2.287c.368-.422.541-.984.476-1.542z" opacity="1" data-original="#ffb74f"></path><path fill="#ffc473" d="M40.687 33.039a1 1 0 0 0-.077-.069c-1.47-1.191-3.739-1.206-5.194-.039a1.1 1.1 0 0 0-.16.129c-.81.721-1.255 1.773-1.255 2.967 0 2.608 2.02 3.974 4.015 3.974 1.98 0 3.985-1.365 3.985-3.974 0-1.173-.453-2.223-1.314-2.988z" opacity="1" data-original="#ffc473"></path><path fill="#ff9a00" d="M51.755 18.545a21.341 21.341 0 0 0-5.344-2.936l-.081-.029a.986.986 0 0 0-.046-.018c-7.402-2.79-15.811-1.646-21.938 2.984a2.007 2.007 0 0 0-.786 1.391 2.015 2.015 0 0 0 .481 1.52l2.095 2.408a2.004 2.004 0 0 0 2.716.282c4.931-3.731 11.285-4.17 16.587-1.138l.098.06c.568.329 1.114.692 1.623 1.081.358.271.784.404 1.208.404.552 0 1.1-.224 1.49-.658l2.178-2.418c.373-.415.557-.972.504-1.532a2.011 2.011 0 0 0-.785-1.401z" opacity="1" data-original="#ff9a00"></path></g></svg>